<?xml version="1.0" encoding="UTF-8"?>
<svg id="artwork" xmlns="http://www.w3.org/2000/svg" version="1.1" viewBox="0 0 263.07 41.77">
  <!-- Generator: Adobe Illustrator 29.5.1, SVG Export Plug-In . SVG Version: 2.1.0 Build 141)  -->
  <defs>
    <style>
      .st0, .st1 {
        fill: #231f20;
      }

      .st1 {
        fill-rule: evenodd;
      }
    </style>
  </defs>
  <g>
    <path class="st1" d="M66.95,18.56h-2.73l-.32.75c-.11.25-.16.46-.16.62,0,.22.09.38.26.48.1.06.36.11.76.14v.21h-2.57v-.21c.28-.04.5-.16.68-.34.18-.19.4-.58.66-1.17l2.76-6.16h.11l2.79,6.33c.27.6.48.98.66,1.13.13.12.31.19.55.21v.21h-3.74v-.21h.15c.3,0,.51-.04.63-.13.08-.06.13-.15.13-.26,0-.07-.01-.14-.03-.21,0-.03-.06-.18-.17-.43l-.41-.96h0ZM66.75,18.14l-1.15-2.66-1.18,2.66h2.34Z"/>
    <path class="st0" d="M75.12,15.43v4.17c0,.41.04.66.11.76.08.1.23.16.46.19v.21h-2.17v-.71c-.25.3-.51.53-.76.67-.25.14-.54.21-.85.21s-.57-.09-.8-.27c-.23-.19-.39-.4-.47-.65-.08-.25-.12-.68-.12-1.29v-2.11c0-.4-.04-.65-.11-.75-.07-.1-.23-.16-.46-.19v-.21h2.17v3.64c0,.38.02.62.05.73.04.11.09.19.17.25.08.06.17.09.27.09.14,0,.26-.04.37-.11.15-.1.33-.3.55-.6v-2.85c0-.4-.04-.65-.11-.75-.07-.1-.23-.16-.46-.19v-.21h2.17Z"/>
    <path class="st0" d="M79.42,15.28l.09,1.82h-.19c-.23-.54-.47-.91-.72-1.11-.25-.2-.49-.3-.74-.3-.16,0-.29.05-.4.16-.11.1-.17.22-.17.36,0,.1.04.2.11.3.12.16.46.42,1.02.8.56.38.92.7,1.1.96.18.26.27.56.27.88,0,.3-.07.59-.22.87-.15.28-.36.5-.63.66-.27.15-.57.23-.89.23-.25,0-.59-.08-1.02-.24-.11-.04-.19-.06-.23-.06-.13,0-.23.09-.31.28h-.19l-.09-1.91h.19c.17.5.4.88.7,1.13.3.25.58.38.85.38.18,0,.33-.06.44-.17.12-.11.18-.25.18-.41,0-.18-.06-.34-.17-.47-.11-.13-.37-.33-.76-.6-.58-.4-.96-.71-1.13-.92-.25-.31-.38-.65-.38-1.03,0-.41.14-.78.42-1.11.28-.33.69-.5,1.23-.5.29,0,.57.07.84.21.1.06.19.09.25.09.07,0,.12-.01.17-.04.04-.03.11-.11.2-.25h.19Z"/>
    <path class="st0" d="M82.24,13.48v1.95h1.26v.56h-1.26v3.29c0,.31.01.51.04.6.03.09.08.16.15.22.07.05.14.08.2.08.25,0,.48-.19.7-.56l.17.13c-.31.73-.81,1.09-1.5,1.09-.34,0-.62-.09-.86-.28-.23-.19-.38-.4-.44-.63-.04-.13-.06-.48-.06-1.05v-2.88h-.69v-.2c.48-.34.88-.69,1.22-1.07.34-.37.63-.79.88-1.25h.19Z"/>
    <path class="st0" d="M86.11,15.43v1.21c.35-.55.66-.92.93-1.09.27-.18.52-.27.77-.27.21,0,.38.07.51.2.13.13.19.31.19.55,0,.25-.06.45-.19.59-.12.14-.27.21-.44.21-.2,0-.38-.06-.52-.19-.15-.13-.24-.2-.26-.22-.04-.02-.08-.03-.13-.03-.11,0-.21.04-.31.13-.16.13-.27.31-.35.55-.12.37-.18.77-.18,1.22v1.54c0,.22.02.36.05.42.05.1.11.18.2.23.09.05.24.07.46.09v.21h-2.88v-.21c.23-.02.39-.08.47-.19.08-.11.13-.4.13-.86v-2.95c0-.3-.02-.5-.05-.58-.04-.11-.09-.18-.17-.23s-.2-.08-.38-.1v-.21h2.18Z"/>
    <path class="st1" d="M91.43,19.97c-.65.57-1.23.86-1.75.86-.3,0-.56-.1-.76-.3-.2-.2-.3-.45-.3-.75,0-.41.17-.77.52-1.09.35-.33,1.11-.76,2.28-1.3v-.54c0-.4-.02-.65-.07-.76-.04-.11-.12-.2-.25-.27-.12-.08-.26-.12-.41-.12-.25,0-.45.06-.61.17-.1.07-.15.15-.15.24,0,.08.05.18.16.3.14.16.22.32.22.47,0,.19-.07.35-.21.48-.14.13-.32.19-.54.19-.24,0-.44-.07-.6-.22-.16-.14-.24-.31-.24-.51,0-.27.11-.53.32-.78.22-.25.52-.44.91-.58.39-.13.79-.2,1.21-.2.5,0,.9.11,1.2.32.3.21.49.44.58.69.05.16.08.53.08,1.1v2.07c0,.24,0,.4.03.46.02.06.05.11.09.14.04.03.08.05.13.05.1,0,.2-.07.3-.21l.17.14c-.19.28-.39.49-.59.62-.2.13-.43.19-.69.19-.3,0-.54-.07-.71-.21-.17-.14-.28-.36-.31-.65h0ZM91.43,19.56v-1.78c-.46.27-.8.56-1.03.87-.15.2-.22.41-.22.62,0,.17.06.33.19.46.09.1.23.15.4.15.19,0,.41-.11.66-.32h0Z"/>
    <path class="st0" d="M96.06,13.03v6.62c0,.38.04.62.13.72.09.1.26.16.51.18v.21h-2.88v-.21c.24,0,.41-.08.52-.21.08-.09.11-.32.11-.69v-5.51c0-.37-.04-.61-.13-.71-.09-.11-.26-.17-.51-.18v-.21h2.23Z"/>
    <path class="st1" d="M98.5,12.85c.25,0,.46.09.63.26.17.17.26.38.26.62s-.09.45-.26.62c-.17.17-.38.26-.62.26s-.45-.09-.62-.26c-.17-.17-.26-.38-.26-.62s.09-.45.26-.62c.17-.17.38-.26.62-.26h0ZM99.3,15.43v4.22c0,.38.04.62.13.72.09.1.26.16.51.18v.21h-2.88v-.21c.24,0,.41-.08.52-.21.08-.09.11-.32.11-.69v-3.11c0-.38-.04-.62-.13-.72-.09-.11-.26-.17-.51-.18v-.21h2.23Z"/>
    <path class="st1" d="M103.05,19.97c-.65.57-1.23.86-1.75.86-.3,0-.56-.1-.76-.3-.2-.2-.3-.45-.3-.75,0-.41.17-.77.52-1.09.35-.33,1.11-.76,2.28-1.3v-.54c0-.4-.02-.65-.07-.76-.04-.11-.12-.2-.25-.27-.12-.08-.26-.12-.41-.12-.25,0-.45.06-.61.17-.1.07-.15.15-.15.24,0,.08.05.18.16.3.14.16.22.32.22.47,0,.19-.07.35-.21.48-.14.13-.32.19-.54.19-.24,0-.44-.07-.6-.22-.16-.14-.24-.31-.24-.51,0-.27.11-.53.32-.78.22-.25.52-.44.91-.58.39-.13.79-.2,1.21-.2.51,0,.9.11,1.2.32.3.21.49.44.58.69.05.16.08.53.08,1.1v2.07c0,.24,0,.4.03.46.02.06.05.11.09.14.04.03.08.05.13.05.1,0,.2-.07.3-.21l.17.14c-.19.28-.39.49-.59.62-.2.13-.43.19-.69.19-.3,0-.54-.07-.71-.21-.17-.14-.28-.36-.31-.65h0ZM103.05,19.56v-1.78c-.46.27-.8.56-1.03.87-.15.2-.22.41-.22.62,0,.17.06.33.19.46.09.1.23.15.4.15.19,0,.41-.11.66-.32h0Z"/>
    <path class="st0" d="M107.65,15.43v.69c.27-.3.54-.51.79-.64.25-.14.52-.21.81-.21.35,0,.63.1.86.29.23.19.38.43.46.71.06.22.09.63.09,1.25v2.07c0,.41.04.67.11.77.08.1.23.16.47.19v.21h-2.69v-.21c.2-.03.35-.11.43-.25.06-.09.09-.33.09-.71v-2.37c0-.44-.02-.71-.05-.83-.03-.11-.09-.2-.18-.26-.08-.06-.17-.1-.27-.1-.33,0-.63.23-.91.7v2.85c0,.4.04.65.11.76.08.11.21.17.42.2v.21h-2.69v-.21c.22-.02.38-.09.48-.22.06-.08.1-.33.1-.74v-3.01c0-.4-.04-.65-.11-.75-.07-.1-.23-.16-.46-.19v-.21h2.17Z"/>
    <path class="st0" d="M121.72,12.86v2.72h-.21c-.25-.74-.64-1.31-1.15-1.7-.51-.39-1.07-.58-1.67-.58s-1.06.16-1.44.49c-.38.32-.66.77-.81,1.36-.16.58-.24,1.18-.24,1.79,0,.74.09,1.39.26,1.95.17.56.46.97.84,1.23.39.26.85.39,1.39.39.19,0,.38-.02.57-.06.2-.04.4-.1.6-.18v-1.61c0-.3-.02-.5-.06-.59-.04-.09-.13-.17-.26-.24-.13-.07-.29-.11-.47-.11h-.2v-.21h3.75v.21c-.28.02-.48.06-.6.12-.11.06-.2.15-.26.29-.03.07-.05.25-.05.53v1.61c-.49.22-1.01.39-1.54.5-.53.11-1.08.17-1.66.17-.73,0-1.34-.1-1.83-.3-.48-.2-.91-.46-1.28-.79-.37-.33-.66-.69-.87-1.1-.27-.52-.4-1.11-.4-1.76,0-1.16.41-2.14,1.22-2.95.82-.8,1.84-1.2,3.08-1.2.38,0,.73.03,1.04.09.17.03.44.12.81.26.38.14.6.21.67.21.11,0,.2-.04.3-.11.09-.08.17-.23.25-.44h.21Z"/>
    <path class="st1" d="M125.42,15.27c.46,0,.89.12,1.29.36.4.24.7.58.91,1.02.21.44.31.92.31,1.45,0,.76-.19,1.39-.58,1.9-.46.62-1.1.92-1.92.92s-1.42-.28-1.85-.84-.65-1.21-.65-1.95.22-1.43.66-1.99c.44-.57,1.05-.85,1.82-.85h0ZM125.44,15.68c-.19,0-.36.07-.5.22-.14.14-.23.43-.27.87-.04.43-.06,1.03-.06,1.79,0,.41.03.79.08,1.14.04.27.13.47.27.62.14.14.29.21.47.21s.31-.05.43-.14c.15-.13.25-.31.3-.54.08-.36.11-1.09.11-2.19,0-.65-.04-1.09-.11-1.33-.07-.24-.18-.42-.32-.53-.1-.08-.23-.12-.39-.12h0Z"/>
    <path class="st0" d="M130.44,20.92l-1.79-4.13c-.22-.5-.39-.81-.51-.95-.09-.1-.22-.16-.39-.2v-.21h2.83v.21c-.18,0-.3.03-.36.1-.09.08-.14.18-.14.3,0,.14.08.4.25.79l.88,2,.7-1.73c.2-.49.3-.84.3-1.05,0-.12-.04-.21-.13-.28-.08-.08-.23-.12-.45-.13v-.21h1.74v.21c-.17.02-.3.09-.41.19-.11.1-.27.4-.48.91l-1.78,4.18h-.27Z"/>
    <path class="st1" d="M137.57,17.9h-2.92c.03.71.22,1.26.56,1.67.26.32.58.47.95.47.23,0,.43-.06.62-.19.19-.13.39-.36.6-.69l.19.13c-.29.59-.61,1.01-.96,1.25-.35.24-.75.36-1.21.36-.79,0-1.39-.3-1.79-.91-.33-.49-.49-1.1-.49-1.82,0-.89.24-1.6.72-2.12.48-.53,1.05-.79,1.69-.79.54,0,1.01.22,1.4.67.4.44.61,1.1.64,1.97h0ZM136.17,17.52c0-.61-.03-1.03-.1-1.26-.06-.23-.17-.4-.31-.52-.08-.07-.19-.1-.32-.1-.2,0-.36.1-.48.29-.22.34-.34.8-.34,1.39v.2h1.55Z"/>
    <path class="st0" d="M140.09,15.43v1.21c.35-.55.66-.92.93-1.09.27-.18.52-.27.77-.27.21,0,.38.07.51.2.13.13.19.31.19.55,0,.25-.06.45-.19.59-.12.14-.27.21-.44.21-.2,0-.38-.06-.52-.19-.15-.13-.24-.2-.26-.22-.04-.02-.08-.03-.13-.03-.11,0-.21.04-.31.13-.16.13-.27.31-.35.55-.12.37-.18.77-.18,1.22v1.54c0,.22.02.36.05.42.05.1.11.18.2.23.09.05.24.07.46.09v.21h-2.88v-.21c.23-.02.39-.08.47-.19.08-.11.12-.4.13-.86v-2.95c0-.3-.02-.5-.05-.58-.04-.11-.09-.18-.16-.23-.07-.05-.2-.08-.38-.1v-.21h2.18Z"/>
    <path class="st0" d="M145.01,15.43v.69c.27-.3.54-.51.79-.64.25-.14.52-.21.81-.21.35,0,.63.1.86.29.23.19.38.43.46.71.06.22.09.63.09,1.25v2.07c0,.41.04.67.11.77.08.1.23.16.47.19v.21h-2.69v-.21c.2-.03.35-.11.43-.25.06-.09.09-.33.09-.71v-2.37c0-.44-.02-.71-.05-.83-.03-.11-.09-.2-.18-.26-.08-.06-.17-.1-.27-.1-.33,0-.63.23-.91.7v2.85c0,.4.04.65.11.76.08.11.21.17.42.2v.21h-2.69v-.21c.22-.02.38-.09.48-.22.06-.08.1-.33.1-.74v-3.01c0-.4-.04-.65-.11-.75-.07-.1-.23-.16-.46-.19v-.21h2.17Z"/>
    <path class="st0" d="M151.18,15.43v.7c.29-.32.56-.54.81-.67.25-.13.52-.19.82-.19.34,0,.63.08.86.24s.41.4.54.73c.3-.34.59-.59.87-.74.28-.15.57-.23.88-.23.37,0,.66.09.88.26.22.17.37.38.46.64.09.26.13.67.13,1.24v2.18c0,.41.04.66.11.76.08.1.23.16.47.19v.21h-2.75v-.21c.22-.02.38-.1.48-.25.07-.1.1-.34.1-.71v-2.29c0-.47-.02-.78-.06-.91-.04-.13-.1-.22-.18-.28-.08-.06-.17-.1-.28-.1-.16,0-.33.06-.5.18-.17.12-.34.3-.51.54v2.86c0,.38.03.62.1.72.09.14.25.22.5.23v.21h-2.76v-.21c.15,0,.26-.04.35-.11.09-.07.14-.15.17-.24.03-.09.05-.3.05-.61v-2.29c0-.48-.02-.78-.06-.91-.04-.12-.1-.22-.19-.28-.09-.07-.18-.1-.28-.1-.15,0-.29.04-.42.12-.18.12-.37.32-.57.6v2.86c0,.38.04.62.11.75.08.12.23.19.47.21v.21h-2.75v-.21c.22-.02.38-.09.48-.22.06-.08.1-.33.1-.74v-3.01c0-.4-.04-.65-.11-.75-.07-.1-.23-.16-.46-.19v-.21h2.17Z"/>
    <path class="st1" d="M162.73,17.9h-2.92c.03.71.22,1.26.56,1.67.26.32.58.47.95.47.23,0,.43-.06.62-.19.19-.13.39-.36.6-.69l.19.13c-.29.59-.61,1.01-.96,1.25-.35.24-.75.36-1.21.36-.79,0-1.39-.3-1.79-.91-.33-.49-.49-1.1-.49-1.82,0-.89.24-1.6.72-2.12.48-.53,1.05-.79,1.69-.79.54,0,1.01.22,1.4.67.4.44.61,1.1.64,1.97h0ZM161.33,17.52c0-.61-.03-1.03-.1-1.26-.06-.23-.17-.4-.31-.52-.08-.07-.19-.1-.32-.1-.2,0-.36.1-.48.29-.22.34-.34.8-.34,1.39v.2h1.55Z"/>
    <path class="st0" d="M165.11,15.43v.69c.27-.3.54-.51.79-.64.25-.14.52-.21.81-.21.35,0,.63.1.86.29.23.19.38.43.46.71.06.22.09.63.09,1.25v2.07c0,.41.04.67.11.77.08.1.23.16.47.19v.21h-2.69v-.21c.2-.03.35-.11.43-.25.06-.09.09-.33.09-.71v-2.37c0-.44-.02-.71-.05-.83-.03-.11-.09-.2-.18-.26-.08-.06-.17-.1-.27-.1-.33,0-.63.23-.91.7v2.85c0,.4.04.65.11.76.08.11.21.17.42.2v.21h-2.69v-.21c.22-.02.38-.09.48-.22.06-.08.1-.33.1-.74v-3.01c0-.4-.04-.65-.11-.75-.07-.1-.23-.16-.46-.19v-.21h2.17Z"/>
    <path class="st0" d="M170.95,13.48v1.95h1.26v.56h-1.26v3.29c0,.31.01.51.04.6.03.09.08.16.15.22.07.05.14.08.2.08.25,0,.48-.19.7-.56l.17.13c-.31.73-.81,1.09-1.5,1.09-.34,0-.62-.09-.86-.28-.23-.19-.38-.4-.44-.63-.04-.13-.06-.48-.06-1.05v-2.88h-.69v-.2c.48-.34.88-.69,1.22-1.07.34-.37.63-.79.88-1.25h.19Z"/>
  </g>
  <rect class="st0" x="62.19" y="26.11" width="200.88" height=".5"/>
  <g>
    <path class="st0" d="M19.21,33.47c-.04.06-.08.12-.15.15"/>
    <path class="st0" d="M20.54,23.04c.15,0,.28-.13.28-.28s-.12-.28-.28-.28-.28.13-.28.28.12.28.28.28h0Z"/>
    <path class="st0" d="M33.46,11.26h0s-10.05,0-10.05,0h0s0,0,0,0v8.12c0,.78.34,1.47.8,1.68l3.87,2.31c.08.1.21.16.35.16.12,0,.23-.05.31-.12l3.93-2.35c.46-.21.79-.9.79-1.68v-8.12s0,0,0,0h0ZM26.75,13.61h-.87v-2.08h.87v2.08h0ZM26.12,14.33l.12-.13-.08-.14.16.02.1-.17.1.17h.16s-.08.13-.08.13l.12.13-.16.03v.18l-.15-.11-.15.11v-.18l-.16-.03h0ZM23.7,16.92v-1.97h1.06v1.97h-1.06ZM23.87,14.06l.16.02.1-.17.1.17h.16s-.08.13-.08.13l.12.13-.16.03v.18l-.15-.11-.15.11v-.18l-.16-.03.12-.13-.08-.14h0ZM25.06,16.07l.16.02.1-.17.1.17h.16s-.08.13-.08.13l.12.13-.16.03v.18l-.15-.11-.15.11v-.18l-.16-.03.12-.13-.08-.14h0ZM25.76,14.48c0-.05-.08-.07-.11-.07-.09,0-.13.16-.21.16-.06,0-.1,0-.1-.06,0-.05.12-.09.17-.14-.65,0-.66.3-.77.3-.17,0,.14-.31.23-.41-.13-.02-.21-.18-.35-.27.07-.1.11-.06.19.01,0-.07.05-.15.2-.15.29,0,.21.28.26.28s0-.28.19-.28c.29,0,.65.74.32.74-.14,0-.03-.11-.03-.13h0ZM25.02,12.31l.12-.13-.08-.14.16.02.1-.17.1.17h.16s-.08.13-.08.13l.12.13-.16.03v.18l-.15-.11-.15.11v-.18l-.16-.03h0ZM24.75,11.53v2.08h-1.06v-2.08h1.06ZM26.75,22.25l-2.41-1.44c-.4-.27-.6-.76-.65-1.34v-2.28h3.06v5.06h0ZM25.88,16.92v-1.97h.87v1.97h-.87ZM29.85,22.42l-1.11.66h-.02c-.08.06-.18.1-.29.1s-.22-.04-.3-.11l-1.1-.66v-5.22h2.82v5.22h0ZM29.85,16.92h-2.82v-5.39h2.82v5.39h0ZM33.18,19.48c-.05.58-.25,1.07-.65,1.34l-2.4,1.44v-5.06h3.06v2.28h0ZM33.18,16.92h-3.06v-5.39h3.06v5.39h0Z"/>
    <path class="st0" d="M26.59,19.05s-.38.12-.28.11c.01-.11.21-.33.31-.41-.02-.13-.18-.01-.35.08.57-.82.21-.48-.11-.43.51-.55.38-.54,0-.37.3-.23.36-.51.31-.6-.28.37-.53.31-.53.66,0,.23-.08.6-.2.72-.15.16-.03-.61-.43-.61-.13,0-.42,0-.51.14.08,0,.2.2.2.28s.07.3-.06.3-.29-.28-.29-.42,0-.1,0-.3c0-.32-.53-.78-.74-.78,0,.23.3.28.3.57-.13,0-.3-.23-.3-.09s.19.17.19.3-.21-.05-.21.09c0,.12.12.1.15.22-.09-.02-.17-.01-.18.03-.01.04.03.09.09.13-.03.03-.06.1-.06.29,0,.64.4.94.7.94.21,0,.18-.15.2-.22,0,.11.11-.05.11.14s-.2.11-.2.28c0,.23.32,0,.32.25,0,.31-.04.3-.04.42,0,.08.34-.11.32-.15.08.03.08.27.23.26.1,0,.12-.24.19-.26-.05.01.31.23.31.12,0-.3-.12-.17-.12-.38,0-.19.41-.15.35-.25-.05-.08-.09-.03-.14-.17,0,.03-.33-.47.07-.22.41.27.46-.63.44-.68h0Z"/>
    <path class="st0" d="M37.31,21.18c.18,0,.33-.13.33-.29s-.15-.29-.33-.29-.33.13-.33.29.15.29.33.29h0Z"/>
    <path class="st0" d="M35.98,21.97c.18,0,.33-.13.33-.29s-.15-.29-.33-.29-.33.13-.33.29.15.29.33.29h0Z"/>
    <path class="st0" d="M20.09,23.8c.18,0,.33-.13.33-.29s-.15-.29-.33-.29-.33.13-.33.29.15.29.33.29h0Z"/>
    <path class="st0" d="M21.12,23.89c.18,0,.33-.13.33-.29s-.15-.29-.33-.29-.33.13-.33.29.15.29.33.29h0Z"/>
    <path class="st0" d="M49.72,10.03c.49.58.6,1.52.25,2.19-.19-.02-.16-.26-.19-.41-.35-.65-.63-1.48-.32-2.22.23.04.14.32.26.44h0Z"/>
    <path class="st0" d="M7.75,10.82c-.1.42-.1,1.01,0,1.39-.09.09-.07-.09-.16-.07-.68-.49-.37-1.47-.54-2.15.03-.05.12-.07.17-.04.32.21.46.51.53.87h0Z"/>
    <path class="st0" d="M51.23,10.88c.1.19-.09.39-.23.48-.16.04-.33-.05-.44-.19-.05-.19.05-.37.21-.46.17-.02.35.02.46.18h0Z"/>
    <path class="st0" d="M6.68,11.65c-.03.16-.09.32-.23.39-.11,0-.26,0-.33-.09-.11-.09-.12-.25-.07-.37.07-.12.21-.14.33-.16.12.05.25.09.3.23h0Z"/>
    <path class="st0" d="M51.91,11.95c.03.11.03.18,0,.28-.12.16-.3.23-.47.16-.12-.07-.16-.19-.19-.3.03-.14.18-.26.3-.32.16,0,.26.09.37.18h0Z"/>
    <path class="st0" d="M50.91,11.97c.14.07.03.25.02.35-.09.09-.21.23-.37.18-.09-.09-.19-.09-.23-.21,0-.18.07-.35.25-.41.14-.03.23.04.33.09h0Z"/>
    <path class="st0" d="M49.63,12.24c0,.19.02.44-.21.48-.21.07-.35-.11-.4-.25-.02-.18.09-.35.26-.42.14,0,.26.09.35.19h0Z"/>
    <path class="st0" d="M8.6,12.32c.05.18-.12.28-.23.37-.12.04-.28-.07-.35-.19-.12-.12.04-.23.07-.33.18-.16.44-.04.51.16h0Z"/>
    <path class="st0" d="M7.54,12.38c0,.14-.07.28-.19.34-.14.05-.28-.05-.35-.16-.09-.18.02-.34.16-.41.19-.07.32.11.39.23h0Z"/>
    <path class="st0" d="M45.39,12.45c.17.37.31.81.35,1.27-.07.34.05.78-.19,1.01-.25-.09-.26-.39-.42-.55-.32-.62-.03-1.34.07-1.94.14-.05.14.12.19.21h0Z"/>
    <path class="st0" d="M6.72,12.66c.05.21-.11.32-.23.44-.21.05-.35-.11-.44-.25-.02-.18.09-.35.23-.42.18-.02.35.07.44.23h0Z"/>
    <path class="st0" d="M48.16,13.17c.23.51.25,1.13.09,1.7l-.11.09c-.25-.48-.6-.92-.72-1.43,0-.37.07-.71.21-1.01.12-.09.19.02.25.12.02.19.11.42.28.53h0Z"/>
    <path class="st0" d="M50.37,12.85c-.02.18-.09.37-.26.42-.18.04-.35-.02-.4-.21-.05-.18.05-.34.19-.42.19-.11.39.07.47.21h0Z"/>
    <path class="st0" d="M7.56,13.4c0,.14-.12.3-.26.34-.14.11-.24-.07-.37-.12-.05-.14-.09-.26,0-.41.05-.11.18-.11.28-.14.16.09.32.16.35.34h0Z"/>
    <path class="st0" d="M8.33,13.31c.07.18-.12.26-.19.35-.21.07-.32-.09-.4-.21-.03-.18.07-.28.19-.39.21-.05.32.09.4.25h0Z"/>
    <path class="st0" d="M50.86,13.26c-.02.23-.37.46-.4.69-.19.48-.61.83-1.09.99-.11.09-.25.21-.4.23-.03-.35.28-.67.47-.99.37-.48.88-.78,1.42-.92h0Z"/>
    <path class="st0" d="M7.21,14c.26.3.4.56.72.83.02.07-.04.18-.12.18-.86-.05-1.44-.94-1.86-1.55.05-.19.28-.04.4-.05.3.23.63.3.86.6h0Z"/>
    <path class="st0" d="M51.1,14.25c-.04.76-.4,1.54-1.09,1.91-.19.07-.4.26-.6.14.37-.76.93-1.38,1.54-2.05h.14Z"/>
    <path class="st0" d="M47.74,14.76c.05.26-.09.42-.3.51-.19.02-.32-.14-.4-.28-.02-.18.09-.34.25-.39.05-.05.14-.05.21-.05.11.04.16.12.25.21h0Z"/>
    <path class="st0" d="M6.25,14.92c.33.23.63.55.95.83-.23.16-.51.02-.77.02-.6-.21-1-.72-1.61-.9.02-.19.25-.12.37-.18.39-.04.7.14,1.07.23h0Z"/>
    <path class="st0" d="M25.02,9.69c-.98-.39-1.63.64-2.63.51-.12.07-.09.19-.16.28-.05.05-.14.02-.19-.02-.05-.42-.19-.81-.25-1.22-.11-.18-.05-.42-.14-.6-.56-1.54,1.37-.37,1.75-1.27.33-.78-.65-.87-.95-1.41v-.23c-.28-.28-.58-.37-.75-.74.12-.44.18-.92.05-1.36-.02-.11-.09-.25-.24-.19-.33.46-.58.83-.89,1.27-.33-.25-.65-.56-1.03-.78-.26-.04-.51-.3-.81-.19-.05.11,0,.19.05.26.02.69.37,1.24.86,1.73l.05.27c-.32.72-.23,1.55-.32,2.33-.79,2.01-2.07,3.95-3.8,5.35-1,1.13-2.19,2.22-2.35,3.78-.05.25.04.55-.16.72-.58-.21-1.16-.49-1.63-.86-.81-.57-1.96-.49-2.49-1.52-.21-.41.05-.81.25-1.11.6-.57.51-1.57.19-2.26-.07-.02-.09.07-.14.09-.05,1.04-.88,1.77-.56,2.91.07.33.25.55.33.86-.12-.04-.3-.04-.4-.09-.39-.05-.77-.21-1.17-.16-.81.37-1.91-.09-2.56.65-.11.02-.25.04-.21.19.39,0,.75.11,1.14.09.61.11,1.02-.41,1.44-.64h.1c.18-.18.47-.07.7-.11,1.1.12,1.96.65,2.87,1.2v.07c-.35.16-.75.26-1.1.46-.4.3-.86.69-.98,1.18-.28.44.09.83.26,1.2.02.18.03.39.19.46.56-.6.03-1.34.12-2.03.14-.53.63-.78,1.14-.92,1-.42,1.72.39,2.52.85-.02.81.09,1.59-.09,2.38-.25.09-.56.14-.82.12-1.38.11-2.47.86-3.72,1.29-.56.19-1.23.18-1.79.39.44.12.89-.04,1.35-.05,1.72-.25,3.03-1.57,4.89-1.34l.03.05c-.21.44-.49.81-.82,1.15-.05-.19-.07-.35-.25-.46-.14-.07-.3,0-.4.14-.05.09-.05.19,0,.26.09.16.23.19.39.25-.03.16-.23.23-.33.37-.49.83-1.49.49-2.07,1.08-.09.12-.4.19-.26.39.67.07,1.32-.11,1.81-.46.65-.72,1.33-1.41,1.98-2.1.1.57-.05,1.15-.39,1.61-.16-.09-.28-.21-.47-.26-.18.04-.3.21-.32.35.07.12.14.26.26.35-.6.42-1.35.46-2.03.65-1.28.16-2.52.26-3.82.28-.61-.04-1.32.18-1.89,0-.67.12-1.38-.09-1.93.28-.07.09.02.18.02.26.81.53,1.91.11,2.82.27h6.91c.51-.02,1.02-.04,1.42-.27.89-.51,1.39-1.43,1.84-2.33.18-.32.3-.69.37-1.06.17-.6.72-1.02,1.31-1.08.09.92-.09,1.84-.3,2.68-.11.57-.47,1.11-.25,1.71.05.28.35.28.58.32,2.12-.04,4.24-.12,6.49.04.4.07.75.19,1.19.18.04-.05.16-.07.11-.18-.05-.19-.19-.44-.42-.49-.03-.11-.19-.07-.25-.14-1.12-.64-2.47-.3-3.79-.28-.68.07-1.37.19-1.95-.19-.26-.32-.07-1.32-.07-1.32,0-.4.96-3.18,1.09-3.41.03-.26.14-.51.11-.81.14-.35.11-.81.11-1.2.07-.57.35-1.09.54-1.64.11-.26.19-.55.3-.81.11-.34.14-.65.35-.92.57.36,1.13.35,1.41,1l.24,1.47c0,.09.07.26.19.16.46-.3.32-.97.32-1.43.11-.55-.28-.81-.44-1.29-.12-.09-.32-.51-.32-.51-.07-.39-.92-.66-.73-1.13.1-.41.21-.78.6-1.01.06.04.08.08.09.13l.21-.15.02-1.48c.57,0,1.42.07,1.99.07.16.05.28.18.46.19l.14-.19,1.42-.28c-.6.07-.97-.63-1.54-.63h0Z"/>
    <path class="st0" d="M26.56,10.32s.09-.01.13-.03l-.13.03h0Z"/>
    <path class="st0" d="M11.3,15.24c.02.21-.11.34-.26.41-.14-.05-.24-.07-.33-.21-.07-.19.1-.34.24-.41.14.04.32.05.35.21h0Z"/>
    <path class="st0" d="M10.16,15.24c.1.11.12.28.07.41-.12.11-.32.19-.42.05-.1-.11-.21-.23-.12-.37.12-.12.33-.23.47-.09h0Z"/>
    <path class="st0" d="M34.56,15.43s0,.02.01.03"/>
    <path class="st0" d="M47.91,15.73c.07.19-.09.34-.23.41-.18-.05-.4-.09-.4-.32.02-.14.14-.23.26-.26.16-.05.3.07.37.18h0Z"/>
    <path class="st0" d="M48.84,15.7c.05.09.18.23.03.32-.07.05-.12.07-.18.14-.19.03-.37-.04-.42-.21-.03-.19.12-.28.26-.37.12-.04.21.05.3.12h0Z"/>
    <path class="st0" d="M5.76,15.91c-.07.21-.25.3-.47.23-.05-.05-.11-.14-.14-.23.02-.12.05-.25.19-.3.21.02.37.11.42.3h0Z"/>
    <path class="st0" d="M11.66,16.21c-.02.14-.18.26-.3.34-.18.02-.3-.12-.39-.25,0-.14.07-.32.21-.35.19-.07.4.07.47.26h0Z"/>
    <path class="st0" d="M10.63,16.08c.05.05.1.19.05.28-.11.09-.26.25-.44.14-.11-.09-.23-.16-.19-.34.07-.07.16-.18.26-.21.14-.04.21.05.32.12h0Z"/>
    <path class="st0" d="M51.53,16.3c0,.14-.14.28-.23.34-.14.05-.3.02-.39-.09-.1-.04-.07-.18-.07-.26.09-.12.21-.19.33-.23.16.04.26.14.35.25h0Z"/>
    <path class="st0" d="M52.65,16.46c-.05.16-.18.3-.33.32-.1-.02-.3-.05-.26-.21,0-.12.07-.25.16-.28.18-.09.39,0,.44.18h0Z"/>
    <path class="st0" d="M7.75,16.7c.04.21-.03.35-.21.42-.12.07-.25-.02-.33-.09-.09-.09-.16-.23-.09-.35.03-.16.19-.12.3-.19.16.02.25.09.33.21h0Z"/>
    <path class="st0" d="M8.61,16.86c.05.14-.11.19-.14.3-.09.05-.21.11-.32.04-.12-.11-.26-.26-.14-.42.14-.26.51-.12.6.09h0Z"/>
    <path class="st0" d="M50.49,16.77c.02.18-.14.3-.24.41-.16.03-.32-.07-.35-.21-.02-.14.07-.25.19-.34.16-.02.32,0,.4.14h0Z"/>
    <path class="st0" d="M51.93,17.06c-.04.16-.02.34-.19.44-.14.04-.32.02-.42-.07-.11-.09-.12-.25-.07-.37.09-.14.25-.25.42-.21.12.07.16.16.26.21h0Z"/>
    <path class="st0" d="M7.09,17.43c.07.14-.09.18-.14.25-.12.07-.25.02-.35-.04-.12-.07-.07-.25-.05-.34.16-.3.47-.09.54.12h0Z"/>
    <path class="st0" d="M50.82,17.76c.07.02.04.12.02.16-.42.21-1.05.26-1.42-.07-.21-.18-.47-.25-.7-.39.09-.23.4-.21.63-.26.51.07.91.55,1.47.57h0Z"/>
    <path class="st0" d="M7.93,17.6c.03.14-.07.19-.11.3-.07.11-.21.07-.3.04-.16-.11-.23-.3-.12-.44.19-.19.42-.09.53.11h0Z"/>
    <path class="st0" d="M9.47,17.71c.07.16-.03.3-.17.39-.12.07-.23-.03-.33-.05-.09-.12-.25-.26-.09-.41.16-.26.47-.12.6.07h0Z"/>
    <path class="st0" d="M29.74,18.46c-.03.35-.62-.05-.53.42.08.34.15.74.35.99.17.23.08.6.07.89-.15.25-.4.44-.67.57-.5-.05-1.23.25-1.47-.37-.1-.27-.28-.54-.28-.84.05-.03.12-.03.17-.08,0-.12-.13-.18-.12-.3.57-.1-.23-.6.25-.64.4.42,1.05.29,1.4.74.08.07.15.17.25.22-.07-.42-.27-.84-.33-1.29-.05-.23.03-.45.2-.59.3-.23.55.1.72.29h0Z"/>
    <path class="st0" d="M11.01,18.35c.05.18-.09.28-.19.37-.16.07-.25-.11-.32-.19-.05-.18.07-.26.18-.35.12,0,.26.05.33.18h0Z"/>
    <path class="st0" d="M21.83,18.52c.21.69.14,1.39-.21,1.98-.02.14.04.37-.16.35-.47-.65-.12-1.57.07-2.26.03-.18.25-.25.3-.07h0Z"/>
    <path class="st0" d="M36.84,18.86c.25.49.26,1.15.03,1.64l-.14.14c-.19-.41-.35-.81-.4-1.25.09-.32.19-.6.21-.94.25-.05.23.26.3.41h0Z"/>
    <path class="st0" d="M12.38,19.05c-.11.21-.4.26-.6.41-.42.32-1.03.39-1.56.3.46-.64,1.16-1.01,2-.83.04.07.12.04.16.12h0Z"/>
    <path class="st0" d="M5.18,19.69c.65.46.82,1.09,1.21,1.73.05.07.23.09.16.23-.14.11-.28-.11-.47-.07-.67-.3-1.09-1.04-1.07-1.82,0-.07.11-.07.18-.07h0Z"/>
    <path class="st0" d="M36.15,20.23c.02.18-.02.35-.16.41-.19.05-.35-.05-.4-.21-.05-.12.05-.19.09-.28.14-.14.39-.07.47.09h0Z"/>
    <path class="st0" d="M43.55,21.17c0-.34.09-.65.12-.97.05-.11.09-.23.07-.37.42-.57,1.28-.39,1.95-.34.26.14.6.12.88.19.12-.09.3-.11.44-.09.56-.3.19-.95.23-1.47l-.21-.53c-.05-.11-.11-.23-.14-.35-.1-.12-.17-.35-.28-.48-.3-.78-.88-1.22-1.37-1.84-.89-1.17-2.3-1.82-3.7-2.28-1.38-.48-2.79.14-4.03.58-.38-.11-.58-.41-.68-.74-.07-.67.07-1.32.33-1.87.05-.44.35-.78.47-1.18.32-.99.65-1.96.72-3.04.03-.65-.46-1.11-.95-1.39-.33-.09-.72-.07-.96.19-.23.48-.72.79-1.14,1.02-.04.3.33.11.46.21.39.07.82-.05,1.14.19.03.71-.37,1.29-.74,1.82-.6.88-1.23,1.78-1.6,2.75l-.07-.07.09,4.32c.56.93,1.26,1.99,2.3,2.34.56.46,1.26,1.01,2.02.6.4-.12.44.44.63.67.21.65-.26,1.11-.3,1.71l-.46.97c-.53,1.02-1,2.12-1.8,2.98-.26,0-.42.28-.68.3-.14.19-.42.05-.6.12-.54.23-1.32.09-1.68.6.03.05.09.07.14.09,1.07.02,2.26.09,3.4.04.14-.05.26-.18.28-.34-.16-.3.05-.57.19-.79.09-.42.37-.69.49-1.09.37-.72.79-1.43,1.19-2.15l.54-.88c.12-.3.33-.67.54-.99.14-.14.21-.3.32-.48.02-.18-.07-.25-.18-.37.12-.12.32-.09.47-.12.44.26.89.69.98,1.17l.16.46.07.21-.04.58.07.55c.09.85-.07,1.71-.16,2.56-.3,1.02-1.47.92-2.31,1.15-.21.14-.61.07-.61.42,1.02.21,2.21.09,3.3.07.18-.07.21-.23.3-.39.04-.23.26-.42.19-.67-.19-.25-.02-.64-.07-.97.04-.09.04-.21,0-.34.14-.51.11-1.13.21-1.62l.07-.67h0Z"/>
    <path class="st0" d="M52.17,20.48c-.56.79-1.16,1.69-2.14,1.98-.07,0-.14.03-.18-.05.6-.64.91-1.62,1.84-1.85.14-.07.33-.14.47-.07h0Z"/>
    <path class="st0" d="M4.32,21.35c-.09.07-.02.23-.18.25-.14.07-.3-.02-.37-.16-.07-.18.09-.35.23-.39.14.07.28.12.32.3h0Z"/>
    <path class="st0" d="M9.37,21.59c.05.16-.12.16-.21.19-.74.26-1.49.02-2.02-.51,0-.07,0-.14.07-.16.72.18,1.56.04,2.16.48h0Z"/>
    <path class="st0" d="M5.28,21.36c.03.07.05.19.03.26-.11.16-.26.19-.44.16-.11-.05-.16-.12-.23-.23.02-.18.16-.28.3-.34.14.02.25.05.33.14h0Z"/>
    <path class="st0" d="M21.71,21.45c.04.16-.1.26-.21.34-.16.04-.3-.04-.37-.14-.05-.12,0-.3.12-.34.16-.04.4-.02.46.14h0Z"/>
    <path class="st0" d="M52.84,21.52c.05.18-.1.26-.23.37-.1.05-.23,0-.33-.05-.02-.09-.12-.16-.09-.28.07-.16.23-.23.4-.21.09.07.16.09.25.18h0Z"/>
    <path class="st0" d="M54,21.45c.1.16.02.28-.07.41-.07.12-.21.16-.32.11-.11-.11-.25-.16-.26-.32,0-.14.16-.25.26-.3.18-.07.25.11.39.11h0Z"/>
    <path class="st0" d="M3.58,21.96c.02.12-.09.19-.12.3-.09.04-.18.11-.28.07-.12-.05-.21-.16-.26-.28.03-.16.14-.3.32-.35.14.04.3.11.35.26h0Z"/>
    <path class="st0" d="M40.5,21.96c.04.07.02.16.02.23-.1.14-.25.26-.42.18-.1-.11-.23-.21-.18-.37.14-.19.44-.26.58-.04h0Z"/>
    <path class="st0" d="M6.4,22.23c-.03.12-.09.25-.25.26-.16.02-.21-.12-.3-.19,0-.16-.02-.32.14-.41.21-.07.4.11.4.34h0Z"/>
    <path class="st0" d="M4.72,22.26c.05.18-.07.3-.18.39-.21.07-.39-.09-.47-.25.02-.16.14-.35.31-.41.16,0,.25.18.33.26h0Z"/>
    <path class="st0" d="M41.66,22.23c.04.18-.02.35-.19.42-.21.07-.39-.11-.47-.25.09-.14.1-.34.32-.37.16,0,.26.07.35.19h0Z"/>
    <path class="st0" d="M5.55,22.3c.05.12-.05.18-.09.26-.09,0-.14.11-.24.07-.07-.09-.21-.12-.23-.25-.02-.18.11-.26.23-.34.18-.02.28.11.33.25h0Z"/>
    <path class="st0" d="M51.88,22.44c-.05.14-.16.21-.3.28-.14.04-.23-.09-.33-.14-.09-.07-.05-.23-.02-.32.18-.3.65-.16.65.18h0Z"/>
    <path class="st0" d="M53.21,22.51c-.05.19-.25.28-.42.3-.16-.07-.33-.19-.21-.41.07-.07.11-.14.21-.16.21-.07.37.09.42.26h0Z"/>
    <path class="st0" d="M44.88,22.63c.09.23-.12.3-.26.41-.12-.02-.23-.07-.33-.14-.03-.19.05-.37.25-.46.16,0,.24.07.35.19h0Z"/>
    <path class="st0" d="M40.06,22.85c.09.04.05.16.03.21-.1.07-.25.25-.4.14-.12-.07-.21-.18-.18-.34.09-.19.46-.21.54-.02h0Z"/>
    <path class="st0" d="M41.04,22.97c.02.14-.02.21-.14.28-.12.12-.26-.02-.39-.05-.03-.07-.07-.18-.02-.26.05-.07.14-.12.23-.14.12.04.26.04.32.18h0Z"/>
    <path class="st0" d="M11.3,22.99c.1.11-.02.23-.04.34-.09.11-.28.19-.44.09-.18-.07-.16-.3-.12-.44.1-.04.1-.16.24-.16.16.02.25.09.35.18h0Z"/>
    <path class="st0" d="M46.76,23.06c.03.18-.14.25-.26.28-.21.07-.32-.09-.4-.23,0-.11.1-.18.14-.26.25-.11.4.07.53.21h0Z"/>
    <path class="st0" d="M45.81,23.06c.07.18-.12.26-.19.35-.12.05-.28.04-.39-.07-.09-.05-.09-.16-.09-.26.11-.09.16-.19.28-.23.16,0,.32.09.39.21h0Z"/>
    <path class="st0" d="M53.72,23.27c.03.25-.28.12-.4.19-.74.44-1.68.11-2.38-.16.05-.23.32-.14.46-.23.75-.48,1.52.11,2.28.14l.05.05h0Z"/>
    <path class="st0" d="M5.74,23.06l-.07.12c-.65.39-1.49.65-2.26.41l-.07-.11c.65-.48,1.51-.6,2.35-.48l.05.05h0Z"/>
    <path class="st0" d="M48.55,23.18c0,.14-.07.26-.18.34-.17.05-.4,0-.46-.19-.05-.14.09-.28.23-.34.12,0,.33.02.4.19h0Z"/>
    <path class="st0" d="M8.88,23.25c-.07.14-.03.28-.21.35-.18.07-.39-.09-.44-.23-.05-.19.09-.25.18-.34.21-.11.37.05.47.21h0Z"/>
    <path class="st0" d="M7.63,23.34c.05.12-.05.19-.09.28-.09.11-.25.09-.35.05-.12-.11-.25-.23-.19-.42.11-.09.16-.14.28-.19.16.03.32.11.35.28h0Z"/>
    <path class="st0" d="M49.77,23.75c-.02.16-.14.28-.28.32-.14.02-.26-.09-.33-.18-.05-.11-.04-.25.07-.34.03-.05.16-.05.23-.09.16.02.28.14.32.28h0Z"/>
    <path class="st0" d="M6.33,23.55c.05.14-.07.19-.09.3-.05.3-.25.49-.39.76-.33.41-.81.41-1.28.53l-.07-.14c.51-.65,1.05-1.17,1.77-1.48l.05.04h0Z"/>
    <path class="st0" d="M48.9,23.94c.04.21-.14.25-.26.33-.16,0-.28-.09-.35-.21-.05-.19.12-.26.23-.35.18-.04.33.09.39.23h0Z"/>
    <path class="st0" d="M8.35,23.94s.02.07.05.09c-.02.19-.16.25-.26.34-.16,0-.28-.05-.39-.18-.07-.16,0-.35.18-.41.16-.02.37,0,.42.16h0Z"/>
    <path class="st0" d="M52.12,24.47c.17-.02.21-.23.4-.26.18-.04.33.07.42.19.07.21-.09.32-.23.41-.12.09-.39-.11-.37.12.12.09.23.21.25.35-.03.07-.16.05-.21.02-.51-.21-1.05-.56-1.26-1.09-.07-.16-.4-.28-.21-.42.51-.04.93.37,1.21.69h0Z"/>
    <path class="st0" d="M53.8,23.92c.09.09.05.25-.02.34-.09.18-.35.11-.51.09-.09-.09-.18-.18-.14-.32.07-.11.14-.18.26-.23.16-.04.28.04.4.12h0Z"/>
    <path class="st0" d="M47.44,24.88c.16.19.32.49.38.71-.03.05-.12.04-.16.04-.6-.34-1.37-.71-1.6-1.41-.05-.07-.19-.16-.18-.28.46-.09.89.25,1.21.49.12.18.26.26.33.46h0Z"/>
    <path class="st0" d="M7.37,24.21c.07.16-.07.28-.16.35-.19.04-.3-.04-.4-.14-.12-.19.11-.35.25-.42.14-.02.23.12.32.21h0Z"/>
    <path class="st0" d="M49.63,24.61c.02.11-.12.18-.18.25-.14.02-.28.07-.4-.05-.03-.09-.12-.23-.02-.32.19-.25.47-.05.6.12h0Z"/>
    <path class="st0" d="M54,24.86c.05.21-.11.35-.25.44-.17.05-.31-.07-.42-.16-.09-.11-.02-.21,0-.34.12-.11.28-.19.46-.12.07.05.14.09.21.18h0Z"/>
    <path class="st0" d="M41.87,27.3c0,.21-.39.16-.54.32-.54.28-1.19.28-1.84.26v-.11c.63-.53,1.54-.72,2.38-.48h0Z"/>
    <path class="st0" d="M16.29,28.06c-.02.16-.11.25-.26.3-.12,0-.25-.07-.3-.18-.07-.21.11-.3.23-.39.16.02.3.14.33.26h0Z"/>
    <path class="st0" d="M41.57,28.25c-.04.16-.09.34-.26.41-.16.04-.26-.05-.39-.12-.09-.07-.03-.19-.05-.28.12-.32.58-.32.7,0h0Z"/>
    <path class="st0" d="M45.06,28.32c-.44.28-.93.62-1.51.62l-.95-.02-.09-.07c.58-.71,1.63-.71,2.54-.64v.11h0Z"/>
    <path class="st0" d="M11.49,28.74c0,.16-.07.28-.23.34-.18.04-.3-.04-.37-.16-.07-.16,0-.32.14-.41.19-.12.39.09.46.23h0Z"/>
    <path class="st0" d="M12.36,28.92c.05.09-.03.14-.07.23-.11.05-.24.09-.33,0-.12-.07-.16-.19-.11-.3.05-.11.16-.09.21-.16.12.05.25.11.3.23h0Z"/>
    <path class="st0" d="M5.65,30.7c-.18.21-.46-.05-.65-.16-.61-.35-.6-1.04-1.21-1.45.07-.21.23.02.35-.02.1.07.25.14.37.19.6.34.74.9,1.14,1.43h0Z"/>
    <path class="st0" d="M56.75,23.85c-.28-.51-.75-.72-1.32-.72-.46.04-.79.34-.98.72-.1.39.03.74.33.97.12.05.28.04.35-.09.09-.23-.16-.23-.19-.41-.07-.25.02-.46.19-.62.18-.18.47-.09.68-.09.21.14.42.26.53.51.11.3.11.64,0,.94-.19.44-.63.79-1.09.88-1.46.21-17.42.14-17.42.14-1.88.18-4.01-.35-5.63.64-.74.35-1.1,1.17-1.3,1.89-.47.42-.98.92-1.37,1.39l-.05-.05c.09-.42.28-.79.37-1.22.26-.35.26-.83.46-1.22.67-1.08,1.3-2.17,2.33-2.93.44-.58,1.21-.48,1.88-.48.72.34,1.56.44,2.44.35.03-.04.05-.07.05-.12-.25-.23-.65-.32-.93-.55-.7-.34-1.37.11-2.1.05-.03-.04-.07-.05-.05-.11.67-.49,1.42-.85,2.17-1.17.61-.34,1.26-.51,1.91-.76.26,0,.51-.23.75-.07l.93-.25s.07.07.14.05c.79-.26,1.79-.02,2.68-.03l.12.11.84.21c.32.04.46.41.79.42.18-.25-.19-.35-.28-.51.39-.09.82.02,1.17.18l-.17.19c-.11.19.05.34.21.41.12.04.21-.05.3-.09.23-.16-.02-.32.05-.46,1.3.23,2.54.55,3.73,1.06.33.11.65.35,1.02.34-.37-.34-.88-.51-1.33-.71-.3-.18-.72-.19-.95-.44.05-.09.18-.05.23-.12.6-.07,1.1-.51,1.53-.99.03-.11.23-.07.21-.21-.16-.18-.42.05-.63.04-.74.14-1.05,1.01-1.79,1.17-.89-.21-1.81-.42-2.7-.65-.44-.07-.91-.11-1.31-.28l-.98-.09h-1.79s-.07-.05-.05-.11c.63-.16,1.17-.53,1.81-.69l4.7-2.15c.49-.44.93-.94,1.33-1.45.02-.14-.07-.28-.19-.34-.12-.05-.26-.04-.35.07-.21.16,0,.35,0,.55-.21.28-.54.53-.81.69-.07-.02-4.84,2.17-4.84,2.17-.7.3-1.4.64-2.14.79l-1.02.16c-.07.21-.25.34-.44.41-.28.05-.51.23-.81.23-2.28.88-4.65,1.82-6.45,3.62.11-.21.16-.48.18-.74-.03-.26-.02-.56-.19-.78-.04-.1-.17-.38-.13-.48l-.26.17c-.16.39-.3,1.09-.14,1.5.05.32.32.69.07.97-.84,1.02-1.32,2.26-1.88,3.43-.21-.04-.32-.23-.4-.42.6-.76,1.07-1.61,1.25-2.58.12-.09.03-.32.16-.42-.03-.28.16-.56.02-.79.11-.39-.51-.74-.11-.99l-.33.16c-.75.99.39,2.47-.47,3.43v.07c-.25.32-.37.64-.7.85-.42-.18-.58-.65-.82-1.01-.39-.37-.39-1.13-.16-1.64.16-.51-.11-.95-.16-1.41l-.17-.11c-.42.55-.58,1.41-.25,2.07.18.32.19.76.46,1.02.16.51.47.85.75,1.31.07.18-.11.21-.19.3-.19-.12-.16-.41-.33-.53-.58-1.24-1.33-2.22-2.24-3.23-.04-.16-.19-.3-.11-.48.33-.32.4-.94.23-1.34-.03-.09-.14-.19-.12-.28l-.26-.21c.03.62-.37,1.16-.19,1.82v.04c-1.81-1.36-3.8-2.57-5.84-3.53l-.16.45c.51.13,1.88.96,1.88.96.61.23,1.17.6,1.75.94,2.38,1.32,3.96,3.51,5.03,5.95.02.19.19.41.07.6-.37-.57-.89-.88-1.33-1.34-.12-.83-.61-1.62-1.33-1.96-.26-.39-.82-.42-1.26-.55l-6.38-.04c-5.19-.07-9.92.16-15.08.07-.72-.07-1.6-.32-1.81-1.08-.14-.26-.14-.72,0-.97.19-.34.54-.44.89-.48.28.04.47.3.6.49,0,.23-.19.44-.28.64.02.07.09.21.21.16.23-.09.4-.33.46-.56.02-.12.07-.3-.05-.39-.11-.37-.49-.64-.82-.72-.44-.04-.89.09-1.19.41-.42.35-.4.99-.28,1.48.28.78,1.1,1.31,1.89,1.41l17.06.07c1.67.09,3.54-.19,5.22.14.61.19,1.26.65,1.42,1.34-.02.03-.07.02-.12.02-1.39-.9-3.21-1.24-4.98-1.02-.7-.04-1.33.23-1.96.41-.33.07-.65-.09-.86-.28-.63-.57-1.74-.53-2.54-.32,0,.05-.02.11.02.12.86-.07,1.37.67,2.14.76.18.04.32-.16.47-.02-.81.39-1.58.85-2.44,1.09-.26-.05-.4-.3-.61-.44-.33-.37-.95-.21-1.4-.25-.16.04-.3-.07-.4,0,.14.28.46.44.75.58.44.19.95-.02,1.35.25-.11.12-.25.16-.37.25-.82.32-1.51,1.06-2.42,1.01-.96.11-1.95-.18-2.59-.85-.28-.69-1-1.06-1.77-1.02-.05.04-.12.04-.11.12.39.23.68.69,1.07.95.25.3.72,0,.95.34.33.23.75.42,1.14.49.28.12.6.18.91.25l-.12.07c-1.59.53-3.44.58-5.22.51-.53-.02-1.03-.18-1.56-.16.09.11.26.19.42.25-.14.09-.3.12-.47.14-.21.05-.46.07-.67.18-.28-.02-.53.09-.75.18-.3.32-.65.65-1,.81,0,.07-.02.18.07.18.33-.14.75-.04,1.09-.18.58-.05.91-.69,1.37-.95.49-.39,1.19-.3,1.79-.21.35.09-.03.23.07.46.14.12.26.26.46.21.03-.04.07-.07.12-.09.1-.14.09-.3.02-.44.25-.16.58.02.84-.09.67-.02,1.33-.16,1.98-.18.1-.02.23-.12.33-.02-.05.14-.23.16-.16.35.03.16.21.23.35.26.18-.07.33-.19.26-.42-.03-.12-.17-.14-.26-.19.37-.18.79-.23,1.16-.41.26-.05.51-.14.74-.25.23-.02.42-.23.63-.14-.09.3-.21.58-.37.85-.28.94-.49,2.17,0,3.07.05.02.07-.02.11-.04-.37-.94-.16-2.01.16-2.9.25-1.5,1.79-1.94,2.89-2.51l.05.07c-.3.78-.74,1.52-.67,2.45.03.16-.07.32,0,.42.3-.16.49-.51.65-.81.12-.79-.33-1.78.47-2.37,1.44-.56,2.79-1.31,4.45-1.32.05.05.18-.04.19.07-.35.39-.86.76-1.02,1.24-.56.78-.54,2.1-.3,3.05.16.55-.32.85-.54,1.27-.11.15-.14.41-.24.58l.35.04c.3-.32.58-.71.6-1.17.03.18.19.32.33.35.12-.19-.11-.34-.12-.53.28-.16.4.19.63.26.37.09.68.25,1.07.25l.12-.12c-.39-.6-1.16-.71-1.82-.74-.35-.58-.35-1.31-.32-2.01.07-.37.14-.76.35-1.09.09-.25.33-.48.49-.67.32-.3.72-.51,1.1-.6h.05s.02.05.02.05c-.47.37-.53.88-.81,1.34-.3.44-.44,1.04-.16,1.54.1.23.05.58.3.74.23-.32.25-.72.37-1.08-.05-.58-.4-1.13-.07-1.69.18-.44.54-.62.95-.78.96-.09,1.81.41,2.65.78.18.12.47.23.51.48-.02.48-.28.95-.65,1.18-.47.28-1.16.32-1.6-.02-.26-.26-.37-.72-.28-1.08.19-.21.46-.39.77-.28.18.09.33.26.56.16.09-.05.12-.19.07-.28-.19-.11-.26-.37-.53-.41-.33-.05-.74-.04-.96.19-.37.32-.51.79-.4,1.24.12.56.54.97,1.09,1.13.81.19,1.65-.05,2.16-.74.21-.23.26-.48.39-.76.84.51,1.47,1.41,1.81,2.33,0,.3.09.62.02.88l.61.05c-.05-.14,0-.3.05-.42.23-1.17.95-2.14,1.81-2.9.3-.18.23.23.3.35.26.67.88,1.15,1.53,1.34.74.12,1.44-.05,1.89-.62.23-.42.51-1.04.12-1.48-.25-.3-.58-.46-.96-.46-.46,0-.74.32-.96.65,0,.14-.02.3.1.37.07,0,.21.02.26-.09.04-.26.26-.39.47-.53.19-.11.4,0,.56.11.19.16.23.42.25.69-.03.34-.26.69-.58.83-.51.26-1.25.14-1.68-.16-.21-.23-.33-.49-.49-.78-.04-.28-.14-.53,0-.81.77-.46,1.58-.79,2.51-.88.37.07.68.32.93.58.81.83-.17,2.01.39,2.93.21-.03.21-.32.3-.49.26-.64-.07-1.32-.23-1.94-.21-.39-.33-.72-.67-1.04.09-.04.12-.04.21-.04.37.25.77.53,1.07.92.51.83.77,1.82.68,2.9-.14.53-.7.78-1.14.97-.17.14-.39.35-.47.57.21.12.51,0,.72-.09.33-.12.53-.55.75-.74.03.02.02.07.03.11.02.19-.09.46.09.51.09-.25.11-.6.16-.9.23.25.26.57.33.88.16.32.42.74.84.79.11-.16-.02-.32-.05-.46-.05-.44-.42-.67-.67-.99-.61-.85-.33-2.17-.81-3.12-.18-.51-.54-.88-.95-1.31l.07-.07c.86-.02,1.58.26,2.37.42.96.48,2.37.37,2.82,1.62.19.71.51,1.36,1,1.91l.05-.04c.1-.18.1-.48,0-.65-.11-.88-.88-1.09-1.28-1.84l.05-.07c.42.12.86.23,1.28.41,1.4.39,2.38,1.77,2.56,3.2,0,1.13-.21,2.07-.65,3.02-.05.14-.3.3-.14.42.19-.14.23-.37.33-.53.58-.97.88-2.31.58-3.55-.02-.23-.28-.41-.16-.64.09.11.19.12.3.16.11-.07.26-.07.33-.19.02-.11.09-.23,0-.32-.11-.16-.33-.16-.51-.12-.09.11-.19.25-.21.39-.17-.3-.35-.69-.63-.94l.04-.05c.79.26,1.51.65,2.31.87.18.11.37.19.61.19.68.26,1.44.37,2.16.55.53-.05.96.19,1.49.07v-.04l-.02.02c-.19-.25-.61-.02-.84-.19-1.21-.12-2.37-.44-3.45-.86.02-.05.09-.04.14-.04.18-.09.3-.25.28-.44-.09-.12-.23-.19-.4-.19-.11.05-.25.18-.26.3.02.14.14.3.26.34-.03.04-.11.02-.16.02-.54-.25-1.07-.48-1.6-.72-.19-.04-.35-.19-.54-.23-.4-.19-.81-.39-1.21-.55-1.12-.58-2.37-.9-3.56-1.32-.26-.07-.51-.14-.75-.21-.44-.12-.88-.23-1.31-.35-1.49-.37-3.49-.41-4.79.41-.21-.07-.33.26-.44.05.37-.97,1.44-1.29,2.4-1.32,7.03-.07,13.62-.12,20.55-.23.81,0,1.6-.28,2.02-1.01.3-.42.35-1.15.12-1.62h0ZM28.88,30.37c-.07.21-.21.39-.19.62l-.07.04c.05-.26-.21-.42-.14-.71-.14-.21-.14-.48-.26-.71-.16-.28.14-.41.26-.6.25.11.33.34.51.55.11.3-.12.53-.11.81h0Z"/>
    <path class="st0" d="M47.9,29.26c0,.05.11.07.07.16-.61.55-1.47.71-2.35.74-.07.02-.14.07-.23.05-.05-.04-.07-.09-.03-.12.63-.69,1.59-1.04,2.54-.83h0Z"/>
    <path class="st0" d="M45.07,29.54c.07.25-.09.39-.28.48-.19-.02-.3-.14-.39-.28-.05-.14.07-.21.12-.3.14-.14.47-.14.54.11h0Z"/>
    <path class="st0" d="M11.75,29.57c.03.12.02.28-.09.37-.07.09-.23.11-.32.09-.12-.02-.19-.16-.23-.26,0-.16.09-.25.23-.34.14,0,.3-.02.4.14h0Z"/>
    <path class="st0" d="M8.61,30.72v.12c-.42.09-.82-.02-1.14-.26-.25-.35-.53-.71-.93-.88,0-.05-.11-.12,0-.16.88,0,1.4.71,2.07,1.18h0Z"/>
    <path class="st0" d="M50.56,29.56c-.4.6-.75,1.34-1.47,1.61-.12,0-.23.18-.33.05.28-.67.88-1.39,1.56-1.68.07,0,.17-.02.24.02h0Z"/>
    <path class="st0" d="M12.77,29.77c.02.19-.12.23-.25.34-.14.02-.21-.09-.3-.19-.07-.18.09-.25.18-.34.14-.04.3.07.37.19h0Z"/>
    <path class="st0" d="M52.77,29.87c-.16.23-.09.57-.24.81-.35.41-.65.86-1.21.95-.09-.18.12-.35.21-.51.25-.53.6-1.13,1.16-1.36l.09.11h0Z"/>
    <path class="st0" d="M3.18,30.03c.05.12.11.25,0,.39-.11.09-.26.12-.4.07-.16-.09-.21-.28-.14-.42.11-.16.42-.25.54-.04h0Z"/>
    <path class="st0" d="M2.18,30.24c.02.09.07.16.05.25-.05.09-.14.19-.25.21-.19.04-.32-.07-.4-.23-.02-.16.03-.3.17-.37.16-.07.33.02.42.14h0Z"/>
    <path class="st0" d="M4.25,30.35c.04.14.07.39-.14.42-.25.11-.39-.07-.53-.21,0-.16.09-.28.21-.35.18-.02.33,0,.46.14h0Z"/>
    <path class="st0" d="M7.12,30.58c-.02.12.02.3-.12.34-.09.09-.25.05-.33.04-.03-.11-.23-.19-.12-.32.07-.09.14-.14.25-.19.1.05.26,0,.33.14h0Z"/>
    <path class="st0" d="M54.45,30.7c-.05.12-.12.28-.26.28-.16-.02-.32-.04-.4-.19-.07-.19.09-.3.23-.35.17,0,.4.07.44.26h0Z"/>
    <path class="st0" d="M51.24,30.79c.02.14-.14.25-.21.3-.25.11-.46-.07-.54-.26.04-.16.16-.26.3-.32.23-.02.35.11.46.28h0Z"/>
    <path class="st0" d="M53.42,30.76c0,.12-.07.25-.16.3-.14.05-.32.04-.42-.07-.16-.14-.03-.27.07-.37.16-.09.46-.07.51.14h0Z"/>
    <path class="st0" d="M2.72,31.06c.04.19-.03.37-.21.44-.16,0-.33-.09-.39-.25-.02-.16.03-.32.18-.37.17-.05.32.05.42.18h0Z"/>
    <path class="st0" d="M50.37,31.25c.05.19-.05.37-.25.46-.14.03-.23-.04-.33-.12-.07-.09-.16-.28-.02-.37.14-.26.49-.16.6.04h0Z"/>
    <path class="st0" d="M12.15,31.45c.07.19-.14.23-.19.34-.07.04-.21.05-.26-.02-.09-.11-.19-.21-.14-.37.09-.07.12-.14.23-.18.19-.05.26.12.37.23h0Z"/>
    <path class="st0" d="M54.14,31.57c.04.12-.07.18-.09.26-.11.09-.28.11-.4.07-.16-.09-.16-.23-.16-.39.11-.07.12-.16.25-.19.16,0,.35.07.4.25h0Z"/>
    <path class="st0" d="M53.05,31.62c.07.21-.12.32-.26.37-.07.02-.18-.04-.19.07.46.23.74.6,1.09.94v.14c-.63-.02-1.28-.18-1.74-.67-.12-.09-.33-.09-.47-.21.23-.23.65-.14.96-.16.23-.25-.26-.42.03-.64.11-.02.18-.12.32-.09.12.05.19.14.26.25h0Z"/>
    <path class="st0" d="M45.88,31.64c.04.09-.07.19-.09.28-.11.11-.26.12-.39.07-.09-.12-.23-.23-.18-.41.14-.26.6-.21.65.05h0Z"/>
    <path class="st0" d="M6.68,32.26c-.05.16-.12.26-.3.28-.14-.02-.26-.07-.32-.21-.02-.12.07-.19.09-.28.19-.16.54-.05.53.21h0Z"/>
    <path class="st0" d="M8.11,32.03c0,.25-.26.39-.35.64-.26.58-.74,1.11-1.4,1.17-.07-.16.23-.35.3-.51.28-.6.84-.92,1.35-1.29h.11Z"/>
    <path class="st0" d="M45.46,32.27c.02.19-.16.34-.3.41-.16.05-.28-.07-.37-.14-.14-.14-.05-.28.02-.42.21-.21.51-.04.65.16h0Z"/>
    <path class="st0" d="M46.55,32.4c-.02.19-.14.34-.32.39-.03-.05-.12-.02-.18-.04-.12-.07-.23-.18-.23-.32.09-.09.12-.23.25-.25.16-.02.42,0,.47.21h0Z"/>
    <path class="st0" d="M10.82,32.38c.02.19-.12.3-.26.37-.16.02-.26-.09-.33-.21-.03-.16.12-.26.21-.35.21-.07.26.09.39.19h0Z"/>
    <path class="st0" d="M12.03,32.45c-.05.16-.16.27-.33.3-.12-.03-.26-.07-.32-.21-.02-.18.12-.26.25-.35.18,0,.37.07.4.26h0Z"/>
    <path class="st0" d="M50.32,33.69c.09.07.24.16.21.28-.28.12-.51-.19-.77-.25-.42-.42-.74-.88-.91-1.41.16-.16.33.04.47.09.4.34.79.78,1,1.29h0Z"/>
    <path class="st0" d="M50.96,32.45c.05.12.03.27-.04.39-.11.18-.33.14-.49.11-.09-.11-.25-.25-.14-.41.05-.14.21-.18.33-.23.12-.02.21.09.33.14h0Z"/>
    <path class="st0" d="M13.64,32.91c.02.14.05.35-.12.44-.16.04-.37-.02-.42-.21-.09-.21.1-.25.21-.35.14-.04.23.03.33.12h0Z"/>
    <path class="st0" d="M46.49,34.06c.25.35.42.79.46,1.25-.05.12.09.25-.02.34h-.07c-.79-.56-.96-1.36-1.26-2.15-.07-.03-.09-.11-.07-.18.18-.16.3.16.47.21l.49.53h0Z"/>
    <path class="st0" d="M15.92,33.46s0,.03.02.03c-.7.49-1.68.79-2.49.32-.02-.05.02-.14.09-.16.51-.16,1-.41,1.54-.34l.84.14h0Z"/>
    <path class="st0" d="M11.93,33.55c-.6.37-1.14,1.09-1.88,1.27-.14.05-.23.25-.4.14.32-.95,1.35-1.47,2.28-1.55v.14h0Z"/>
    <path class="st0" d="M45.46,34.34c.05.14,0,.34-.14.37-.09.09-.26.09-.33,0-.16-.07-.16-.23-.16-.35.05-.12.17-.14.26-.19.16.03.28.03.37.18h0Z"/>
    <path class="st0" d="M44.01,34.43c-.11.25-.4.39-.63.46-.6.21-1.14-.07-1.67-.21.02-.14.19-.09.28-.18.58-.12,1.17-.25,1.79-.09.05-.04.18-.05.23.02h0Z"/>
    <path class="st0" d="M11.93,34.94c-.05.07-.07.23-.21.28-.12.05-.24,0-.35-.07-.04-.11-.16-.19-.07-.32.03-.12.18-.16.28-.19.18.02.32.12.35.3h0Z"/>
    <path class="st0" d="M12.96,35.1c-.05.11-.1.26-.25.34-.14.04-.25-.04-.35-.12-.05-.11-.1-.23-.05-.35.04-.09.16-.11.25-.16.18-.02.33.16.4.3h0Z"/>
    <path class="st0" d="M45.13,35.28c.02.14-.05.23-.12.34-.09.12-.26.14-.39.07-.12-.02-.16-.16-.21-.25-.1-.14.07-.23.12-.35.19-.16.51-.07.6.19h0Z"/>
    <path class="st0" d="M45.9,35.24c.02.09.07.18.03.25-.11.09-.18.32-.39.23-.1.03-.16-.11-.21-.14-.07-.18-.02-.44.21-.48.16-.05.26.09.35.14h0Z"/>
    <path class="st0" d="M12.33,35.75c.03.19-.04.37-.18.48-.19.04-.44.04-.51-.19-.02-.18,0-.41.21-.51.18-.02.39.02.47.23h0Z"/>
    <path class="st0" d="M13.33,35.68c-.03.49-.14,1.09-.63,1.38-.28.05-.56.32-.84.14v-.09c.37-.53,1.03-.94,1.47-1.43h0Z"/>
    <path class="st0" d="M42.38,36.09c.07.11-.05.19-.11.28-.1.12-.3.07-.42.02-.12-.05-.14-.23-.09-.35.04-.11.14-.16.23-.19.16-.02.3.12.39.25h0Z"/>
    <path class="st0" d="M15.08,36.9c.24.41.11.95.24,1.4-.3.04-.42-.3-.61-.48-.39-.53-.33-1.24-.51-1.85.03-.05.09-.05.12-.04.26.18.46.51.67.74-.03.12.1.12.09.23h0Z"/>
    <path class="st0" d="M43.25,36.23c0,.14-.16.18-.25.26-.12-.02-.23-.07-.33-.16-.05-.18.09-.23.17-.32.18-.07.35.02.4.21h0Z"/>
    <path class="st0" d="M45.34,37.8c0,.05-.02.16-.11.12h-.07c-.51-.46-1.02-.97-.95-1.68l.11-.02c.47.41,1,.85,1.02,1.57h0Z"/>
    <path class="st0" d="M44.02,37.24c.02.14-.07.25-.16.34-.19.05-.49.04-.53-.23-.02-.18.18-.26.26-.35.21-.05.35.09.42.25h0Z"/>
    <path class="st0" d="M42.87,37.61c-.25.65-.91.99-1.37,1.48-.09-.05-.05-.19-.03-.26.18-.67.7-1.32,1.35-1.59.28.04,0,.23.05.37h0Z"/>
    <path class="st0" d="M44.18,38.14c0,.16-.16.23-.25.32-.14-.02-.28-.05-.39-.19-.02-.18.12-.23.23-.32.18-.04.33.05.4.19h0Z"/>
    <path class="st0" d="M31.14,6.08c.24,0,.43.2.43.44s-.19.44-.43.44h-5.2c-.24,0-.43-.2-.43-.44s.19-.44.43-.44h5.2ZM27.46,6.84c.51,0,.03-.62-.25-.62h-.51c-.51,0-.03.62.24.62h.51ZM29.59,6.84c.51,0,.03-.62-.25-.62h-.51c-.51,0-.03.62.25.62h.51ZM31.16,6.22h-.19c-.51,0-.08.62.2.62.34,0,.36-.62,0-.62h0Z"/>
    <path class="st0" d="M30.68,12.05l.99.38.98-.38-.39,1.46.77-.16-.26.89.26.85-.69-.19.3,1.58-.98-.38-.99.38.4-1.58-.79.22.21-.89-.21-.85.76.12-.37-1.46h0ZM32.15,14.68c.22,0,.24-.31.24-.57,0-.6-.48,0-.72-.57-.18.48-.67.04-.67.55,0,.35,0,.59.35.59h.8ZM31.17,14.14c0,.23.31.08.54.08s.54.15.54-.08c0-.33-.31-.21-.54-.21s-.54-.11-.54.21h0Z"/>
    <polygon class="st0" points="28.36 14.2 28.36 14.01 28.19 13.98 28.32 13.85 28.24 13.7 28.41 13.71 28.51 13.53 28.61 13.71 28.79 13.7 28.71 13.85 28.84 13.98 28.67 14.01 28.67 14.2 28.51 14.08 28.36 14.2 28.36 14.2"/>
    <polygon class="st0" points="27.59 15.19 27.59 15.01 27.42 14.97 27.55 14.84 27.47 14.69 27.64 14.71 27.74 14.53 27.84 14.7 28.02 14.69 27.94 14.84 28.07 14.97 27.9 15.01 27.9 15.19 27.74 15.07 27.59 15.19 27.59 15.19"/>
    <polygon class="st0" points="28.89 15.06 28.89 14.88 28.73 14.85 28.86 14.71 28.78 14.56 28.95 14.58 29.05 14.4 29.15 14.58 29.32 14.56 29.24 14.71 29.37 14.85 29.21 14.88 29.21 15.06 29.05 14.95 28.89 15.06 28.89 15.06"/>
    <polygon class="st0" points="29.05 15.81 29.05 15.7 28.95 15.68 29.03 15.61 28.98 15.52 29.08 15.53 29.14 15.43 29.19 15.53 29.29 15.52 29.25 15.61 29.32 15.68 29.22 15.7 29.22 15.81 29.14 15.74 29.05 15.81 29.05 15.81"/>
    <polygon class="st0" points="27.83 16.65 27.83 16.34 27.55 16.28 27.77 16.05 27.63 15.79 27.92 15.82 28.1 15.51 28.27 15.82 28.57 15.79 28.43 16.05 28.66 16.28 28.37 16.34 28.37 16.65 28.1 16.45 27.83 16.65 27.83 16.65"/>
    <polygon class="st0" points="28.45 0 29.07 1.52 30.63 1.06 29.84 2.49 31.17 3.43 29.56 3.7 29.66 5.34 28.45 4.24 27.24 5.34 27.34 3.7 25.73 3.43 27.06 2.49 26.27 1.06 27.83 1.52 28.45 0 28.45 0"/>
    <path class="st0" d="M22.8,34.05c-.19.07-.26.12-.21.31l.22.93c.04.17.05.44-.06.61-.14.2-.43.33-.64.38-.15.04-.48.1-.75-.01-.18-.08-.29-.16-.36-.47l-.23-.97c-.06-.24-.15-.23-.35-.2l-.02-.07,1.17-.28.02.07c-.23.06-.33.09-.27.35l.23.97c.04.17.14.57.64.45.61-.15.51-.59.47-.78l-.21-.89c-.04-.18-.11-.27-.41-.21l-.02-.07.76-.18.02.07h0Z"/>
    <path class="st0" d="M24.54,34.24c-.11-.19-.39-.48-.8-.39-.18.04-.35.17-.31.36.03.16.12.21.44.26l.56.1c.13.02.43.13.5.45.06.26-.09.66-.73.8-.33.07-.51,0-.62.03-.07.02-.08.07-.08.12l-.1.02-.16-.72.1-.02c.14.28.41.57.85.47.42-.09.37-.39.36-.43-.04-.2-.22-.23-.47-.27l-.25-.04c-.65-.11-.71-.36-.73-.49-.04-.18-.02-.6.64-.75.28-.06.47,0,.57-.02.08-.02.09-.07.09-.13l.1-.02.14.64-.1.02h0Z"/>
    <path class="st0" d="M26.85,35.4l-1.27.12v-.07c.25-.04.34-.06.31-.31l-.15-1.57c-.25.04-.61.09-.64.57h-.1s-.05-.59-.05-.59l2.14-.21.06.6h-.1c-.12-.46-.48-.44-.73-.43l.15,1.57c.02.25.11.25.38.24v.08h0Z"/>
    <path class="st0" d="M29.82,35.4h-.73s-.72-.97-.72-.97h-.1s-.01.59-.01.59c0,.24.07.25.31.28v.08s-1.21-.02-1.21-.02v-.08c.25-.02.32-.03.32-.27l.03-1.33c0-.26-.11-.27-.31-.28v-.07s1.15.02,1.15.02c.25,0,1.01.04,1,.55,0,.37-.38.46-.57.5l.7.87c.05.06.1.06.15.06v.07h0ZM28.28,34.33c.47,0,.66-.06.66-.45,0-.3-.14-.44-.42-.44-.2,0-.2.03-.22.12l-.02.77h0Z"/>
    <path class="st0" d="M32.17,35.7l-1.15-.14v-.07c.23.01.3.02.31-.08.01-.08-.08-.32-.11-.42l-.8-.1c-.13.2-.2.32-.2.36-.01.11.16.14.28.16v.07s-.73-.09-.73-.09v-.07c.2,0,.27-.09.4-.3l.99-1.53h.1s.6,1.68.6,1.68c.12.34.16.45.34.46v.07h0ZM31.18,34.86l-.27-.77-.42.68.69.09h0Z"/>
    <path class="st0" d="M34.25,36.12l-2.03-.37v-.07c.21.02.32.03.35-.15l.26-1.43c.03-.19-.11-.23-.26-.27v-.07s1.24.23,1.24.23v.07c-.26-.04-.37-.05-.42.21l-.25,1.39c-.03.14.05.18.28.22.53.1.77-.11.99-.41l.1.02-.27.64h0Z"/>
    <path class="st0" d="M35.6,36.43l-1.22-.26.02-.07c.19.03.33.04.37-.14l.29-1.42c.04-.19-.12-.23-.28-.28l.02-.07,1.22.26-.02.07c-.17-.03-.33-.06-.38.14l-.29,1.42c-.04.19.1.23.29.28v.07h-.01Z"/>
    <path class="st0" d="M38.09,36.75l-1.15-.12v-.07c.23,0,.29.01.3-.09,0-.08-.08-.31-.12-.41l-.8-.08c-.12.2-.19.32-.2.37-.01.11.16.14.28.16v.07s-.73-.07-.73-.07v-.07c.2,0,.26-.1.39-.31l.96-1.55h.1s.63,1.66.63,1.66c.13.34.17.44.35.46v.07h0ZM37.07,35.93l-.29-.76-.41.69.69.07h0Z"/>
    <path class="st0" d="M28.94,12.53c0-.72-.4-.05-.63-.66-.16.52-.65.08-.65.64,0,.21.06.34.16.4v.21c0,.06.04.1.1.1h.77c.06,0,.1-.04.1-.1v-.23c.09-.08.16-.2.16-.37h0ZM28.32,12.67c-.21,0-.49.14-.49-.1,0-.35.24-.27.45-.27s.54-.08.54.27c0,.25-.28.1-.49.1h0Z"/>
    <path class="st0" d="M35.22,21.38c.18,0,.33-.13.33-.29s-.15-.29-.33-.29-.33.13-.33.29.15.29.33.29h0Z"/>
    <path class="st0" d="M33.66,10.7s-.16.26-.16.31c0,.1.07.17.16.17s.16-.08.16-.17c0,0-.16-.31-.16-.31h0Z"/>
    <path class="st0" d="M23.08,10.7s-.15.26-.15.31c0,.1.07.17.16.17s.16-.08.16-.17c0,0-.16-.31-.16-.31h0Z"/>
    <path class="st0" d="M25.72,10.7s-.15.26-.15.31c0,.1.07.17.16.17s.16-.08.16-.17c0,0-.16-.31-.16-.31h0Z"/>
    <path class="st0" d="M28.37,10.7s-.15.26-.15.31c0,.1.07.17.16.17s.16-.08.16-.17c0,0-.16-.31-.16-.31h0Z"/>
    <path class="st0" d="M31.02,10.7s-.15.26-.15.31c0,.1.07.17.16.17s.16-.08.16-.17c0,0-.16-.31-.16-.31h0Z"/>
    <path class="st0" d="M23.08,14.34s.15.26.15.31c0,.1-.07.17-.16.17s-.16-.08-.16-.17c0,0,.16-.31.16-.31h0Z"/>
    <path class="st0" d="M23.08,17.87s.15.26.15.31c0,.1-.07.17-.16.17s-.16-.08-.16-.17c0,0,.16-.31.16-.31h0Z"/>
    <path class="st0" d="M23.5,20.66s.16.26.16.31c0,.09-.07.17-.16.17s-.16-.08-.16-.17c0,0,.16-.31.16-.31h0Z"/>
    <path class="st0" d="M25.72,22.15s.15.26.15.31c0,.1-.07.17-.16.17s-.16-.08-.16-.17c0,0,.16-.31.16-.31h0Z"/>
    <path class="st0" d="M33.8,14.34s-.15.26-.15.31c0,.1.07.17.16.17s.16-.08.16-.17c0,0-.16-.31-.16-.31h0Z"/>
    <path class="st0" d="M33.8,17.87s-.15.26-.15.31c0,.1.07.17.16.17s.16-.08.16-.17c0,0-.16-.31-.16-.31h0Z"/>
    <path class="st0" d="M33.37,20.66s-.15.26-.15.31c0,.09.07.17.16.17s.16-.08.16-.17c0,0-.16-.31-.16-.31h0Z"/>
    <path class="st0" d="M31.15,22.15s-.15.26-.15.31c0,.1.07.17.16.17s.16-.08.16-.17c0,0-.16-.31-.16-.31h0Z"/>
    <path class="st0" d="M28.45,23.72s-.15.26-.15.31c0,.1.07.17.16.17s.16-.08.16-.17c0,0-.16-.31-.16-.31h0Z"/>
    <path class="st0" d="M32.76,18.46c.03.05.12.07.22.03l.1-.29s-.12-.13-.19-.11c-.28.07-.58.1-.75.37,0,.18.13.35.27.44.1-.03.12.07.18.12.02.08-.03.15-.12.15-.2-.2-.55.07-.7-.19.07-.25.2-.54-.02-.77.02-.05.1-.1.05-.15-.08-.23-.33-.05-.48-.05-.25-.03-.45.1-.6.3.02.08.05.17.13.25.07-.02.1,0,.12.07l-.17.1c.05.05.05.12.07.18-.12.05-.23-.12-.28-.2,0-.13.02-.37-.17-.4-.03,0-.14.05-.14.05-.04.05-.07.16-.07.28s.07.3.07.3c0,0,.51.38.63.61-.15.3-.15.72-.5.89-.1.07-.1.17-.1.27l.08.07c.22-.12.63-.15.6-.52.08-.15.17-.32.32-.44.17-.03.32.05.38.18-.05.25-.22.42-.45.5-.03.03-.02.08-.02.13.07.12.25.07.35.05.28-.18.4-.52.65-.62.03.17-.33.22-.1.39.15-.03.35.02.45-.18-.12-.28.4-.42.08-.67,0-.25.27-.35.25-.62-.1-.27-.42-.27-.5-.52.1-.07.25-.05.35,0h0Z"/>
    <path class="st0" d="M20.59,21.51c.18,0,.33-.13.33-.29s-.15-.29-.33-.29-.33.13-.33.29.15.29.33.29h0Z"/>
    <path class="st0" d="M3.43,31.54c.18,0,.33-.14.33-.31s-.15-.31-.33-.31-.32.14-.32.31.15.31.32.31h0Z"/>
    <path class="st0" d="M14.35,33.97h-.02l-.02-.03h0v.02s0,0,0,0h0s-.03,0-.03,0h0s0,0,0-.01v-.04s0,0,0,0h0s.03,0,.03,0c0,0,.03,0,.03.02,0,.01-.01.01-.02.01l.02.03s0,0,0,0h0ZM14.31,33.94s.02,0,.02-.01c0,0,0-.01-.01-.01,0,0,0,0,0,0v.02h0Z"/>
    <path class="st0" d="M14.4,33.93s0-.02-.02-.02c0,0-.01,0-.01,0,0,0,0,0,.01.01h.02s.01.01.01.02c0,0,0,.02-.03.02,0,0-.01,0-.02,0s0,0,0,0h0v-.02h0s0,.02.02.02c.01,0,.01,0,.01-.01,0,0,0,0-.01-.01h0s-.02-.02-.02-.02c0,0,0-.02.02-.02,0,0,.01,0,.02,0s0,0,0,0h0v.02h0Z"/>
    <path class="st0" d="M14.51,33.92s0,0,0,0l-.02.05h0l-.02-.04h0l-.02.04h0l-.02-.05s0,0,0,0h0s.03,0,.03,0h0s0,0,0,0c0,0,0,0,0,0v.03h.01v-.03s0,0,0,0c0,0,0,0,0,0h0s.03,0,.03,0h0s0,0,0,0c0,0,0,0,0,0v.03h.01v-.03s.01,0,.01,0c0,0,0,0,0,0h0s.02,0,.02,0h0Z"/>
    <path class="st0" d="M14.51,33.97s.02,0,.03-.02c0,0,0,0,0,0,0,0,0,0,0,0,0,0-.02,0-.02-.02,0,0,0-.02.02-.02,0,0,.02,0,.02.03,0,.02-.02.03-.05.04h0ZM14.54,33.95s0,0,0,0c0,0,0,0,0,0,0-.02,0-.02,0-.02,0,0,0,0,0,.01,0,.01,0,.02,0,.02h0Z"/>
    <path class="st0" d="M14.57,33.93s.02,0,.02,0c0,0,.01,0,.01.02,0,.01-.01.02-.03.02,0,0-.01,0-.01,0,0,0,0,0,0,0,0,0,.01,0,.02,0,0,0,.01,0,.01,0,0,0,0,0-.01-.01,0,0-.02,0-.02,0v-.03h.04,0s-.03.01-.03.01h0Z"/>
    <path class="st0" d="M34.54,10.28h0s-12.22,0-12.22,0h0s0,0,0,0v9.34c0,.95.41,1.78.97,2.04l4.7,2.98c.1.12.26.19.43.19.15,0,.28-.06.38-.15l4.77-3.03c.56-.26.96-1.09.96-2.04v-9.34s0,0,0,0h0ZM34.2,19.74c-.06.71-.3,1.29-.79,1.63l-4.61,2.93h-.03c-.1.08-.22.13-.35.13s-.26-.05-.36-.13l-4.6-2.92c-.49-.33-.73-.92-.79-1.63v-9.13h11.53v9.13h0Z"/>
    <path class="st0" d="M30.08,23.89l.15-.07c-.06.02-.11.05-.15.07h0Z"/>
    <path class="st0" d="M20.86,36.65l-1.15.13v-.07c.21-.04.27-.05.26-.15,0-.08-.15-.29-.21-.38l-.8.09c-.08.23-.12.36-.11.4.01.11.18.1.31.09v.07s-.71.08-.71.08v-.07c.18-.05.22-.15.3-.39l.6-1.72h.1s.97,1.46.97,1.46c.2.3.26.4.44.37v.07h0ZM19.7,36.07l-.44-.68-.25.76.69-.08h0Z"/>
    <path class="st0" d="M41.1,32.27c-.21-.55-.65-.92-1.19-1.09-.56-.12-1.16-.04-1.52.39-.63.51-.19,1.36-.18,2.05,0,.14.02.25-.12.32-2.54-.23-4.91-.87-7.43-1.13-.58-.1-1.16-.07-1.71-.19l-.71-.07c-2.19.07-4.38.19-6.43.72-.44.14-.93.18-1.37.34-.32-.05-.58.18-.88.09l-.58.14c-.05,0-.12,0-.19-.01-.28-.72.56-1.16.3-1.87-.23-.41-.68-.79-1.21-.72-.6-.07-1.12.26-1.4.72-.4.88.11,1.8.26,2.67-.04.28.28.6,0,.83-.56-.39-1.3-.6-1.98-.41-.21.11-.6-.04-.7.21.75.41,1.72.35,2.56.32.11-.04.18-.05.26.02.07.46-.09,1.08.19,1.48.32.42.84.53,1.35.58,1.61-.05,3.05-.53,4.52-.9.23-.02.4-.14.65-.14.79-.18,1.65-.32,2.49-.34-.37.48-.58,1.01-.74,1.59-.21.48.37.55.54.81-.54.16-.93.53-1.44.74-1.12-.04-2.07.39-3.12.51-.02.23.37.16.4.39-.05.16-.21.18-.33.26-.02.11,0,.12.11.14.11-.12.33-.04.44-.16.35,0,.65-.11.98-.12.3-.12.63-.14.89-.35.37-.11.6-.35.96-.46.53,0,1-.18,1.49-.21v.11c-.4.65-.82,1.32-1.24,1.94-.07.12.02.25.12.28.25.07.49,0,.68-.11.37-.64.7-1.24,1-1.89.12-.6.56-.92,1-1.32.07-.04.18-.14.25-.04-.35.41-.58.79-.84,1.24-.14.49-.18,1.13.26,1.54.21.18.53.12.81.14.68-.35,1.56.21,2.09-.46.32-.05.37.32.54.49.3.09.61.39.91.18-.02-.2-.23-.37-.33-.55-.21-.37-.47-.67-.67-1.01-.09-.25-.25-.41-.28-.65.32.11.6.32.95.37.3.12.67.11.95.28.23.3.58.48.88.67.44.21.93.25,1.38.42.18.02.44.16.56,0-.07-.09-.16-.14-.26-.19-.05-.23.32-.11.44-.28-.04-.09-.12-.12-.2-.13-.25-.13-.88-.18-1.04-.27-.21-.04-.4-.12-.61-.19-1.05,0-1.63-.95-2.47-1.31.19-.18.49-.32.61-.58.16-.25.21-.65.05-.94-.16-.55-.86-.48-1.26-.78l.05-.05c.68-.04,1.28.12,1.89.25,1.68.23,3.24.87,5,.9.96,0,2.17.05,2.65-.88.09-.55.19-1.09.28-1.64.21-.88.79-1.7.7-2.67h0ZM22.16,40.33l-.24-.23c.12-.16.39-.07.58-.18.46-.14.98-.32,1.49-.21-.53.42-1.21.48-1.82.62h0ZM33.11,40.04c.42.19,1.26.37,1.87.44-.05.24-.48.02-.43.35-.54-.21-1.17-.32-1.58-.74.03-.02.07-.07.14-.05h0ZM16.66,32.54c.05-.32.12-.65.42-.88.42-.23,1-.18,1.39.05.12.07.21.18.28.34.09.3-.05.62-.26.79h-.17c0-.28,0-.57.1-.79-.02-.21-.19-.23-.33-.32-.3-.09-.56.05-.79.18-.18.21-.33.48-.23.78.12.19.02.46.09.67l-.05.07c-.21-.23-.49-.48-.44-.88h0ZM17.48,33.04c.26.19.63.11.95.16.05.19.05.44-.09.6-.3-.07-.68-.04-.84-.32.03-.12-.05-.3-.02-.44h0ZM17.43,32.45c.05-.14,0-.35.19-.39.12-.04.32-.04.33.11-.02.21-.03.42-.09.62-.25.02-.37-.12-.44-.34h0ZM25.65,38.12c-.09-.62.16-1.15.56-1.59.25-.05.53-.11.75.04-.46.12-1.03.23-1.14.81.02.23-.05.35.05.55.19.34.63.19.88.46,0,.09-.07.19-.16.21-.3-.18-.67-.25-.95-.48h0ZM25.02,39.34c.42-.18.86-.55,1.33-.39-.33.26-.88.37-1.33.39h0ZM26.69,39.51c-.25.57-.53,1.11-.86,1.66-.03.09-.18.11-.28.12,0-.25.25-.44.35-.65.37-.48.47-.99.89-1.45.1.11-.1.18-.1.32h0ZM27.12,38.49v.07h-.03v-.09h.07s-.05,0-.07.02h.03ZM26.97,38.01c-.3-.04-.58-.12-.84-.21-.18-.18,0-.37,0-.57.25-.39.95-.58,1.28-.23-.05.39-.19.72-.44,1.01h0ZM27.35,38.01c.05-.23.16-.53.28-.74-.02.23-.12.55-.28.74h0ZM27.55,36.58c-.23-.05-.35-.32-.6-.32.21-.07.42-.05.67-.02.09.12-.05.23-.07.34h0ZM27.76,37.11h-.02v-.19h.02v.19h0ZM27.77,37.92c-.02-.07.03-.16.05-.25.09-.09.18.07.21.12-.05.09-.16.14-.26.12h0ZM28.04,36.83c.09-.25.11-.46.26-.65.17,0,.33,0,.47.07.04.35.47.83,0,1.13-.16.07-.39.23-.56.07-.23-.19-.26-.37-.18-.62h0ZM29.32,36.34c-.04-.16.16-.03.23-.11l.54.04c-.28-.04-.63.62-.77.07h0ZM30.19,36.57c-.21.07-.37.32-.58.37.11-.19.37-.39.58-.37h0ZM29.46,37.66v.05h-.02v-.05h.02ZM29.49,38.74s.02.09-.04.12l-.4-.32c.19-.04.33.05.44.19h0ZM29.02,38.19s.12-.04.16,0h-.16ZM28.77,37.92c.07-.11.16-.26.28-.26,0,.02.02.04.04.05-.11.09-.19.18-.32.21h0ZM28.37,37.89h-.07l.1-.11c.05.04-.02.07-.03.11h0ZM28.42,38.56c.23-.25.44.14.53.34.26.39.95.74.68,1.27-.33.3-.86.02-1.23.25-.19-.02-.53.04-.63-.16.19-.56.37-1.2.65-1.7h0ZM27.93,38.9l.09-.14c-.14.42-.35.87-.58,1.27-.1-.42.33-.76.49-1.13h0ZM28.7,41c-.33.02-.84.21-1.16-.07.02-.14-.14-.21-.12-.35.28-.11.53.23.79-.02.4.02.82-.05,1.23.04.19.05.49-.32.53.05-.14.58-.84.18-1.26.35h0ZM29.72,38.45v-.05h.03v.05h-.03ZM29.82,39.57c.02.18.19.25.09.41-.04-.07-.14-.23-.09-.41h0ZM30.31,40.63l-.09.04c-.09-.07-.05-.27-.03-.37.1.09.19.21.12.34h0ZM31.19,41.05c-.02.05-.11.05-.14.02-.53-.67-.77-1.38-1.1-2.12l.07-.02c.42.69.75,1.45,1.17,2.12h0ZM31.84,39.43s-.04.05-.04.07c-.51.02-.84-.28-1.23-.55l-.02-.09c.47.04.86.34,1.28.57h0ZM31.38,37.08c.21.05.23.28.25.46-.02.39-.23.72-.6.87-.19.11-.49.14-.68.07.42-.02.88-.18,1.05-.6l-.02-.79h0ZM31,37.01c.09.25.25.48.16.78-.17.34-.53.34-.84.41-.16.02-.28-.04-.4-.12.02-.07-.02-.12-.07-.18.05-.23-.4-.46-.09-.65.28-.26.95-.86,1.24-.23h0ZM39.9,35.72c-.14.18-.02.46-.19.62,0,.32-.26.48-.49.6-2.09.46-4.14-.25-6.15-.6-2.82-.62-6.12-.79-8.99-.14-1.35.25-2.66.56-3.96.94-.81.11-1.68.23-2.45-.02-.63-.3-.37-1.11-.56-1.68.04-.44-.12-.79-.14-1.22-.05-.14-.09-.32-.07-.46.26.04.53.23.81.3,1.47.28,2.79-.19,4.15-.44,1.31-.28,2.66-.51,4.05-.62,1.58-.02,3.19-.11,4.7.16.49.02.91.14,1.38.18.98.12,1.89.39,2.89.46.16.05.35.05.53.09,1.58.25,3.35.69,4.86,0,0,.64-.26,1.22-.35,1.84h0ZM39.41,33.56c.02.28-.25.21-.39.32h-.42c-.09-.14-.05-.35-.05-.49.28.05.6.05.86.18h0ZM39.22,33.12c.19-.19-.05-1.31.49-.58,0,.14.02.35-.12.46-.09.07-.23.21-.37.12h0ZM40.64,32.95c-.16.32-.4.55-.75.6.02-.42.4-.72.26-1.2-.23-.34-.68-.44-1.1-.35-.16.11-.09.28-.14.44l-.07.58c-.35,0-.37-.32-.47-.56.02-.37.18-.74.54-.92.28-.14.74-.12,1.02.04.23.05.49.16.58.37.26.25.19.69.14,1.01h0Z"/>
  </g>
  <g>
    <path class="st0" d="M62.18,38.5v-.19h.23c.2,0,.36-.03.47-.1.11-.06.19-.15.24-.26.03-.07.05-.29.05-.65v-4.6c0-.36-.02-.58-.06-.67-.04-.09-.11-.17-.23-.23-.12-.07-.27-.1-.47-.1h-.23v-.19h3.13c.84,0,1.51.11,2.02.34.62.28,1.09.7,1.42,1.26.32.56.48,1.2.48,1.91,0,.49-.08.94-.24,1.36s-.36.76-.61,1.03-.54.49-.87.65c-.33.16-.73.29-1.2.38-.21.04-.54.06-.99.06h-3.13ZM64.85,31.9v5.46c0,.29.01.47.04.53.03.06.07.12.14.15.09.05.23.08.4.08.57,0,1.01-.2,1.31-.59.41-.53.62-1.35.62-2.47,0-.9-.14-1.61-.42-2.15-.22-.42-.51-.7-.86-.86-.25-.11-.66-.16-1.23-.15Z"/>
    <path class="st0" d="M74.1,35.92h-2.65c.03.64.2,1.15.51,1.52.24.29.52.43.86.43.21,0,.39-.06.56-.17s.35-.32.54-.62l.18.11c-.26.53-.55.91-.87,1.13-.32.22-.68.33-1.1.33-.72,0-1.26-.28-1.62-.83-.3-.44-.44-.99-.44-1.65,0-.8.22-1.45.65-1.92.43-.48.94-.71,1.53-.71.49,0,.91.2,1.27.6.36.4.55.99.58,1.78ZM72.83,35.57c0-.55-.03-.93-.09-1.14-.06-.21-.15-.36-.28-.47-.07-.06-.17-.09-.29-.09-.18,0-.32.09-.44.26-.2.31-.3.73-.3,1.26v.18h1.4Z"/>
    <path class="st0" d="M76.55,38.01v1.79c0,.25.02.42.06.51.04.09.1.15.18.2.08.04.24.06.48.06v.19h-2.75v-.19c.21,0,.37-.07.47-.18.07-.08.1-.28.1-.61v-5.09c0-.34-.04-.56-.12-.65-.08-.09-.23-.15-.46-.16v-.19h2.02v.63c.17-.25.34-.43.52-.54.25-.16.52-.24.82-.24.35,0,.68.11.97.34.29.22.51.53.66.93.15.39.23.82.23,1.27,0,.49-.08.93-.23,1.34-.16.4-.38.71-.68.92s-.63.32-.99.32c-.27,0-.51-.06-.74-.18-.17-.09-.35-.24-.54-.46ZM76.55,37.49c.3.42.61.63.95.63.19,0,.34-.1.46-.29.18-.29.27-.84.27-1.65s-.1-1.4-.29-1.71c-.13-.2-.31-.3-.53-.3-.35,0-.63.25-.86.75v2.57Z"/>
    <path class="st0" d="M83.1,37.79c-.59.52-1.12.78-1.58.78-.27,0-.5-.09-.69-.27-.18-.18-.27-.41-.27-.68,0-.37.16-.7.47-.99.32-.29,1.01-.69,2.07-1.17v-.48c0-.36-.02-.59-.06-.69-.04-.09-.11-.18-.22-.25-.11-.07-.23-.11-.37-.11-.22,0-.41.05-.55.15-.09.06-.13.13-.13.22,0,.07.05.16.14.27.13.15.2.29.2.43,0,.17-.06.31-.19.43-.13.12-.29.18-.49.18-.22,0-.4-.07-.54-.2-.15-.13-.22-.28-.22-.46,0-.25.1-.48.29-.71.2-.23.47-.4.82-.52.35-.12.72-.18,1.09-.18.46,0,.82.1,1.09.29s.44.4.52.63c.05.14.07.48.07,1v1.87c0,.22,0,.36.03.42s.04.1.08.13c.03.03.07.04.12.04.09,0,.18-.06.27-.19l.15.12c-.17.25-.35.44-.53.55-.18.12-.39.17-.63.17-.28,0-.49-.06-.65-.19s-.25-.32-.28-.59ZM83.1,37.41v-1.61c-.42.24-.73.51-.93.78-.13.19-.2.37-.2.56,0,.16.06.3.17.42.09.09.21.14.36.14.17,0,.37-.1.6-.29Z"/>
    <path class="st0" d="M87.69,33.68v1.09c.32-.5.6-.83.84-.99.24-.16.47-.25.7-.25.19,0,.35.06.46.18s.17.29.17.5c0,.23-.06.41-.17.54-.11.13-.25.19-.4.19-.18,0-.34-.06-.47-.18-.13-.12-.21-.18-.24-.2-.03-.02-.07-.03-.12-.03-.1,0-.19.04-.28.11-.14.12-.25.28-.32.5-.11.33-.17.7-.17,1.1v1.4c0,.2.02.32.04.38.04.09.1.16.18.2.08.04.22.07.41.08v.19h-2.6v-.19c.21-.02.35-.07.43-.17.07-.1.11-.36.11-.78v-2.67c0-.27-.01-.45-.04-.53-.03-.1-.08-.17-.15-.21-.07-.04-.18-.08-.35-.09v-.19h1.97Z"/>
    <path class="st0" d="M92.49,31.91v1.76h1.15v.51h-1.15v2.98c0,.28.01.46.04.54.03.08.07.15.14.2.07.05.13.08.18.08.22,0,.43-.17.63-.51l.15.11c-.28.66-.73.99-1.36.99-.31,0-.56-.08-.78-.26-.21-.17-.35-.36-.4-.57-.03-.12-.05-.43-.05-.95v-2.6h-.63v-.18c.43-.31.8-.63,1.11-.96.3-.34.57-.71.8-1.13h.17Z"/>
    <path class="st0" d="M96.23,33.68v.63c.26-.29.51-.49.73-.61.23-.12.47-.17.74-.17.31,0,.57.07.78.22.21.14.37.36.48.66.27-.31.54-.53.79-.67.25-.14.52-.21.79-.21.33,0,.6.08.8.23s.34.35.41.58c.08.24.12.61.12,1.13v1.98c0,.37.03.6.1.69.07.09.21.15.42.18v.19h-2.49v-.19c.2-.02.34-.09.43-.23.06-.09.09-.31.09-.64v-2.07c0-.43-.02-.7-.05-.82-.03-.12-.09-.2-.16-.26-.07-.06-.16-.08-.26-.08-.15,0-.3.05-.45.16-.15.11-.3.27-.46.49v2.59c0,.35.03.57.09.66.08.13.23.2.45.21v.19h-2.5v-.19c.13,0,.24-.04.32-.1.08-.06.13-.13.15-.22.03-.08.04-.27.04-.55v-2.07c0-.44-.02-.71-.05-.82-.03-.11-.09-.2-.17-.26s-.17-.09-.26-.09c-.14,0-.26.04-.38.11-.16.11-.33.29-.52.55v2.59c0,.34.03.56.1.67.07.11.21.17.42.19v.19h-2.49v-.19c.2-.02.35-.09.43-.2.06-.08.09-.3.09-.67v-2.72c0-.36-.03-.59-.1-.68-.07-.09-.21-.15-.42-.18v-.19h1.96Z"/>
    <path class="st0" d="M107.01,35.92h-2.65c.03.64.2,1.15.51,1.52.24.29.52.43.86.43.21,0,.39-.06.56-.17s.35-.32.54-.62l.18.11c-.26.53-.55.91-.87,1.13-.32.22-.68.33-1.1.33-.72,0-1.26-.28-1.62-.83-.3-.44-.44-.99-.44-1.65,0-.8.22-1.45.65-1.92.43-.48.94-.71,1.53-.71.49,0,.91.2,1.27.6.36.4.55.99.58,1.78ZM105.74,35.57c0-.55-.03-.93-.09-1.14-.06-.21-.15-.36-.28-.47-.07-.06-.17-.09-.29-.09-.18,0-.32.09-.44.26-.2.31-.3.73-.3,1.26v.18h1.4Z"/>
    <path class="st0" d="M109.54,33.68v.62c.25-.27.48-.46.71-.59.23-.12.47-.18.73-.18.31,0,.57.09.78.26.21.17.34.39.41.65.05.2.08.57.08,1.13v1.88c0,.37.03.6.1.69.07.09.21.15.42.17v.19h-2.44v-.19c.18-.02.31-.1.39-.23.05-.09.08-.3.08-.64v-2.15c0-.4-.02-.64-.05-.75-.03-.1-.08-.18-.16-.24-.07-.06-.16-.08-.25-.08-.3,0-.57.21-.83.63v2.58c0,.36.03.59.1.69s.19.16.37.18v.19h-2.44v-.19c.2-.02.35-.09.43-.2.06-.08.09-.3.09-.67v-2.72c0-.36-.03-.59-.1-.68-.07-.09-.21-.15-.42-.18v-.19h1.97Z"/>
    <path class="st0" d="M115.18,31.91v1.76h1.15v.51h-1.15v2.98c0,.28.01.46.04.54.03.08.07.15.14.2.07.05.13.08.18.08.22,0,.43-.17.63-.51l.15.11c-.28.66-.73.99-1.36.99-.31,0-.56-.08-.78-.26-.21-.17-.35-.36-.4-.57-.03-.12-.05-.43-.05-.95v-2.6h-.63v-.18c.43-.31.8-.63,1.11-.96.3-.34.57-.71.8-1.13h.17Z"/>
    <path class="st0" d="M121.6,33.53c.42,0,.81.11,1.17.32.36.22.64.52.82.92.19.4.28.84.28,1.31,0,.68-.17,1.26-.52,1.72-.42.56-1,.84-1.74.84s-1.28-.25-1.68-.76c-.39-.51-.59-1.1-.59-1.77s.2-1.29.6-1.81c.4-.51.95-.77,1.65-.77ZM121.62,33.9c-.18,0-.33.07-.45.2s-.21.39-.25.78-.06.93-.06,1.63c0,.37.02.71.07,1.03.04.24.12.43.24.56.12.13.26.19.42.19s.28-.04.39-.13c.13-.12.22-.28.27-.49.07-.33.1-.99.1-1.98,0-.58-.03-.99-.1-1.2s-.16-.38-.29-.48c-.09-.07-.21-.11-.35-.11Z"/>
    <path class="st0" d="M126.57,34.18v3.35c0,.32.03.53.1.61.11.13.31.19.61.18v.19h-2.84v-.19c.22,0,.37-.03.46-.07.09-.05.15-.11.19-.19s.05-.25.05-.52v-3.35h-.7v-.51h.7v-.6c0-.5.18-.91.54-1.24.36-.33.85-.5,1.47-.5.42,0,.74.08.94.24s.31.33.31.53c0,.15-.06.29-.19.4-.13.11-.3.17-.51.17-.18,0-.32-.05-.43-.14s-.16-.2-.16-.31c0-.03.01-.09.03-.19.01-.06.02-.11.02-.17,0-.07-.02-.13-.06-.16-.06-.05-.12-.08-.2-.08-.1,0-.18.04-.25.12-.07.08-.1.21-.1.4v.9s.01.61.01.61h.71v.51h-.71Z"/>
    <path class="st0" d="M133.04,35.14v2.17c0,.36.02.58.06.67s.12.17.23.23c.12.07.27.1.47.1h.23v.19h-3.66v-.19h.23c.2,0,.37-.04.49-.11.09-.05.16-.13.21-.25.04-.08.06-.3.06-.65v-4.6c0-.36-.02-.58-.06-.67-.04-.09-.11-.17-.23-.23-.12-.07-.27-.1-.47-.1h-.23v-.19h3.66v.19h-.23c-.2,0-.37.04-.49.11-.09.05-.16.13-.21.25-.04.08-.06.3-.06.65v1.98h2.47v-1.98c0-.36-.02-.58-.06-.67-.04-.09-.12-.17-.23-.23-.12-.07-.27-.1-.47-.1h-.23v-.19h3.65v.19h-.23c-.21,0-.37.04-.49.11-.09.05-.16.13-.21.25-.04.08-.06.3-.06.65v4.6c0,.36.02.58.06.67.04.09.11.17.23.23.12.07.27.1.47.1h.23v.19h-3.65v-.19h.23c.21,0,.37-.04.49-.11.09-.05.16-.13.21-.25.04-.08.06-.3.06-.65v-2.17h-2.47Z"/>
    <path class="st0" d="M142.65,35.92h-2.65c.03.64.2,1.15.51,1.52.24.29.52.43.86.43.21,0,.39-.06.56-.17s.35-.32.54-.62l.18.11c-.26.53-.55.91-.87,1.13-.32.22-.68.33-1.1.33-.72,0-1.26-.28-1.62-.83-.3-.44-.44-.99-.44-1.65,0-.8.22-1.45.65-1.92.43-.48.94-.71,1.53-.71.49,0,.91.2,1.27.6.36.4.55.99.58,1.78ZM141.38,35.57c0-.55-.03-.93-.09-1.14-.06-.21-.15-.36-.28-.47-.07-.06-.17-.09-.29-.09-.18,0-.32.09-.44.26-.2.31-.3.73-.3,1.26v.18h1.4Z"/>
    <path class="st0" d="M145.93,37.79c-.59.52-1.12.78-1.58.78-.27,0-.5-.09-.69-.27-.18-.18-.27-.41-.27-.68,0-.37.16-.7.47-.99.32-.29,1.01-.69,2.07-1.17v-.48c0-.36-.02-.59-.06-.69-.04-.09-.11-.18-.22-.25-.11-.07-.23-.11-.37-.11-.22,0-.41.05-.55.15-.09.06-.13.13-.13.22,0,.07.05.16.14.27.13.15.2.29.2.43,0,.17-.06.31-.19.43-.13.12-.29.18-.49.18-.22,0-.4-.07-.54-.2-.15-.13-.22-.28-.22-.46,0-.25.1-.48.29-.71.2-.23.47-.4.82-.52.35-.12.72-.18,1.09-.18.46,0,.82.1,1.09.29s.44.4.52.63c.05.14.07.48.07,1v1.87c0,.22,0,.36.03.42s.04.1.08.13c.03.03.07.04.12.04.09,0,.18-.06.27-.19l.15.12c-.17.25-.35.44-.53.55-.18.12-.39.17-.63.17-.28,0-.49-.06-.65-.19s-.25-.32-.28-.59ZM145.93,37.41v-1.61c-.42.24-.73.51-.93.78-.13.19-.2.37-.2.56,0,.16.06.3.17.42.09.09.21.14.36.14.17,0,.37-.1.6-.29Z"/>
    <path class="st0" d="M150.49,31.51v5.99c0,.34.04.56.12.65.08.09.23.15.46.16v.19h-2.6v-.19c.21,0,.37-.07.47-.19.07-.08.1-.29.1-.63v-4.99c0-.34-.04-.55-.12-.65-.08-.09-.23-.15-.46-.16v-.19h2.02Z"/>
    <path class="st0" d="M153.39,31.91v1.76h1.15v.51h-1.15v2.98c0,.28.01.46.04.54.03.08.07.15.14.2.07.05.13.08.18.08.22,0,.43-.17.63-.51l.15.11c-.28.66-.73.99-1.36.99-.31,0-.56-.08-.78-.26-.21-.17-.35-.36-.4-.57-.03-.12-.05-.43-.05-.95v-2.6h-.63v-.18c.43-.31.8-.63,1.11-.96.3-.34.57-.71.8-1.13h.17Z"/>
    <path class="st0" d="M156.92,31.51v2.79c.26-.28.51-.48.73-.59s.45-.17.69-.17c.3,0,.56.09.78.26s.36.37.43.61c.07.23.11.62.11,1.17v1.88c0,.37.03.6.1.69s.21.15.42.17v.19h-2.44v-.19c.17-.02.3-.09.39-.21.06-.09.09-.31.09-.65v-2.15c0-.4-.02-.65-.05-.75-.03-.1-.08-.18-.16-.24-.07-.06-.16-.08-.25-.08-.14,0-.27.05-.4.14-.13.09-.27.26-.42.5v2.58c0,.34.03.56.08.64.07.12.2.19.4.22v.19h-2.44v-.19c.2-.02.35-.09.43-.2.06-.08.09-.3.09-.67v-4.9c0-.36-.03-.59-.1-.68-.07-.09-.21-.15-.42-.18v-.19h1.97Z"/>
    <path class="st0" d="M161.07,40.35v-.23c.4-.17.69-.39.87-.67.18-.27.27-.55.27-.84,0-.06-.01-.1-.04-.13-.02-.03-.05-.04-.07-.04-.02,0-.05.01-.09.04-.1.06-.22.09-.37.09-.2,0-.38-.08-.53-.24-.15-.16-.22-.34-.22-.56,0-.23.09-.43.26-.6.17-.17.38-.26.62-.26.3,0,.55.11.76.34.21.23.31.54.31.94,0,.49-.15.93-.45,1.31-.3.38-.74.66-1.32.84Z"/>
    <path class="st0" d="M165.86,38.5v-.19h.23c.2,0,.36-.03.47-.1.11-.06.19-.15.24-.26.03-.07.05-.29.05-.65v-4.6c0-.36-.02-.58-.06-.67-.04-.09-.11-.17-.23-.23-.12-.07-.27-.1-.47-.1h-.23v-.19h3.13c.84,0,1.51.11,2.02.34.62.28,1.09.7,1.42,1.26.32.56.48,1.2.48,1.91,0,.49-.08.94-.24,1.36s-.36.76-.61,1.03-.54.49-.87.65c-.33.16-.73.29-1.2.38-.21.04-.54.06-.99.06h-3.13ZM168.52,31.9v5.46c0,.29.01.47.04.53.03.06.07.12.14.15.09.05.23.08.4.08.57,0,1.01-.2,1.31-.59.41-.53.62-1.35.62-2.47,0-.9-.14-1.61-.42-2.15-.22-.42-.51-.7-.86-.86-.25-.11-.66-.16-1.23-.15Z"/>
    <path class="st0" d="M175.6,33.68v3.82c0,.34.04.56.12.65s.23.15.46.16v.19h-2.6v-.19c.21,0,.37-.07.47-.19.07-.08.1-.29.1-.63v-2.82c0-.34-.04-.56-.12-.65-.08-.09-.23-.15-.46-.16v-.19h2.02ZM174.88,31.34c.22,0,.41.08.57.23.15.16.23.34.23.56s-.08.41-.23.56-.34.23-.56.23-.41-.08-.56-.23-.23-.34-.23-.56.08-.41.23-.56c.15-.16.34-.23.56-.23Z"/>
    <path class="st0" d="M179.76,33.54l.08,1.65h-.18c-.21-.49-.43-.82-.65-1-.23-.18-.45-.27-.67-.27-.14,0-.26.05-.36.14-.1.09-.15.2-.15.33,0,.09.03.18.1.27.11.14.42.38.92.72.51.34.84.63,1,.87.16.24.24.51.24.8,0,.27-.07.53-.2.79-.13.26-.32.46-.57.59-.24.14-.51.21-.81.21-.23,0-.54-.07-.92-.22-.1-.04-.17-.06-.21-.06-.11,0-.21.09-.28.26h-.17l-.08-1.73h.18c.15.45.37.79.64,1.02.27.23.52.34.77.34.17,0,.3-.05.4-.15s.16-.22.16-.37c0-.17-.05-.31-.15-.43-.1-.12-.33-.3-.69-.55-.53-.36-.87-.64-1.02-.84-.23-.28-.34-.59-.34-.93,0-.37.13-.71.38-1.01.26-.3.63-.45,1.11-.45.26,0,.51.06.76.19.09.05.17.08.23.08.06,0,.11-.01.15-.04.04-.03.1-.1.18-.22h.18Z"/>
    <path class="st0" d="M183.43,37.79c-.59.52-1.12.78-1.58.78-.27,0-.5-.09-.69-.27-.18-.18-.27-.41-.27-.68,0-.37.16-.7.47-.99.32-.29,1.01-.69,2.07-1.17v-.48c0-.36-.02-.59-.06-.69-.04-.09-.11-.18-.22-.25-.11-.07-.23-.11-.37-.11-.22,0-.41.05-.55.15-.09.06-.13.13-.13.22,0,.07.05.16.14.27.13.15.2.29.2.43,0,.17-.06.31-.19.43-.13.12-.29.18-.49.18-.22,0-.4-.07-.54-.2-.15-.13-.22-.28-.22-.46,0-.25.1-.48.29-.71.2-.23.47-.4.82-.52.35-.12.72-.18,1.09-.18.46,0,.82.1,1.09.29s.44.4.52.63c.05.14.07.48.07,1v1.87c0,.22,0,.36.03.42s.04.1.08.13c.03.03.07.04.12.04.09,0,.18-.06.27-.19l.15.12c-.17.25-.35.44-.53.55-.18.12-.39.17-.63.17-.28,0-.49-.06-.65-.19s-.25-.32-.28-.59ZM183.43,37.41v-1.61c-.42.24-.73.51-.93.78-.13.19-.2.37-.2.56,0,.16.06.3.17.42.09.09.21.14.36.14.17,0,.37-.1.6-.29Z"/>
    <path class="st0" d="M187.82,31.51v2.66c.41-.42.85-.63,1.33-.63.33,0,.64.1.93.29.29.19.52.47.69.83.17.36.25.77.25,1.24,0,.53-.1,1-.31,1.43-.21.43-.49.76-.84.98-.35.23-.75.34-1.2.34-.26,0-.49-.04-.7-.12-.2-.08-.4-.22-.6-.4l-.8.52h-.18v-6.13c0-.28-.01-.45-.04-.52-.03-.1-.09-.17-.16-.21s-.2-.07-.37-.08v-.19h2ZM187.82,34.62v2.15c0,.44.01.72.03.84.03.2.12.37.25.49s.3.19.5.19c.18,0,.33-.05.45-.15s.23-.3.31-.59c.08-.3.13-.83.13-1.6s-.09-1.25-.28-1.52c-.13-.2-.31-.3-.54-.3-.3,0-.58.17-.85.5Z"/>
    <path class="st0" d="M193.61,33.68v3.82c0,.34.04.56.12.65s.23.15.46.16v.19h-2.6v-.19c.21,0,.37-.07.47-.19.07-.08.1-.29.1-.63v-2.82c0-.34-.04-.56-.12-.65-.08-.09-.23-.15-.46-.16v-.19h2.02ZM192.88,31.34c.22,0,.41.08.57.23.15.16.23.34.23.56s-.08.41-.23.56-.34.23-.56.23-.41-.08-.56-.23-.23-.34-.23-.56.08-.41.23-.56c.15-.16.34-.23.56-.23Z"/>
    <path class="st0" d="M196.76,31.51v5.99c0,.34.04.56.12.65s.23.15.46.16v.19h-2.6v-.19c.21,0,.37-.07.47-.19.07-.08.1-.29.1-.63v-4.99c0-.34-.04-.55-.12-.65-.08-.09-.23-.15-.46-.16v-.19h2.02Z"/>
    <path class="st0" d="M199.91,33.68v3.82c0,.34.04.56.12.65s.23.15.46.16v.19h-2.6v-.19c.21,0,.37-.07.47-.19.07-.08.1-.29.1-.63v-2.82c0-.34-.04-.56-.12-.65-.08-.09-.23-.15-.46-.16v-.19h2.02ZM199.19,31.34c.22,0,.41.08.57.23.15.16.23.34.23.56s-.08.41-.23.56-.34.23-.56.23-.41-.08-.56-.23-.23-.34-.23-.56.08-.41.23-.56c.15-.16.34-.23.56-.23Z"/>
    <path class="st0" d="M202.81,31.91v1.76h1.15v.51h-1.15v2.98c0,.28.01.46.04.54.03.08.07.15.14.2.07.05.13.08.18.08.22,0,.43-.17.63-.51l.15.11c-.28.66-.73.99-1.36.99-.31,0-.56-.08-.78-.26-.21-.17-.35-.36-.4-.57-.03-.12-.05-.43-.05-.95v-2.6h-.63v-.18c.43-.31.8-.63,1.11-.96.3-.34.57-.71.8-1.13h.17Z"/>
    <path class="st0" d="M206.91,38.7l-1.56-3.57c-.23-.54-.41-.87-.52-1-.11-.12-.25-.21-.4-.26v-.19h2.56v.19c-.17,0-.29.04-.36.1-.07.06-.1.13-.1.21,0,.13.09.39.26.77l.83,1.89.56-1.46c.2-.52.3-.88.3-1.08,0-.13-.04-.23-.13-.3-.08-.08-.23-.12-.45-.12v-.19h1.61v.19c-.16.02-.29.08-.39.18-.1.1-.27.46-.5,1.07l-1.38,3.57c-.35.89-.61,1.44-.77,1.65-.24.29-.53.43-.89.43-.29,0-.52-.08-.69-.25s-.27-.36-.27-.59c0-.2.06-.36.18-.5.12-.13.27-.2.45-.2s.31.06.42.17c.1.11.16.28.16.51,0,.13.02.21.05.25.03.04.07.06.12.06.08,0,.17-.05.26-.15.14-.14.3-.47.48-.99l.15-.4Z"/>
    <path class="st0" d="M215.18,37.79c-.59.52-1.12.78-1.58.78-.27,0-.5-.09-.69-.27-.18-.18-.27-.41-.27-.68,0-.37.16-.7.47-.99.32-.29,1.01-.69,2.07-1.17v-.48c0-.36-.02-.59-.06-.69-.04-.09-.11-.18-.22-.25-.11-.07-.23-.11-.37-.11-.22,0-.41.05-.55.15-.09.06-.13.13-.13.22,0,.07.05.16.14.27.13.15.2.29.2.43,0,.17-.06.31-.19.43-.13.12-.29.18-.49.18-.22,0-.4-.07-.54-.2-.15-.13-.22-.28-.22-.46,0-.25.1-.48.29-.71.2-.23.47-.4.82-.52.35-.12.72-.18,1.09-.18.46,0,.82.1,1.09.29s.44.4.52.63c.05.14.07.48.07,1v1.87c0,.22,0,.36.03.42s.04.1.08.13c.03.03.07.04.12.04.09,0,.18-.06.27-.19l.15.12c-.17.25-.35.44-.53.55-.18.12-.39.17-.63.17-.28,0-.49-.06-.65-.19-.15-.13-.25-.32-.28-.59ZM215.18,37.41v-1.61c-.42.24-.73.51-.93.78-.13.19-.2.37-.2.56,0,.16.06.3.17.42.09.09.21.14.36.14.17,0,.37-.1.6-.29Z"/>
    <path class="st0" d="M219.75,33.68v.62c.25-.27.48-.46.71-.59.23-.12.47-.18.73-.18.31,0,.57.09.78.26.21.17.34.39.41.65.05.2.08.57.08,1.13v1.88c0,.37.03.6.1.69.07.09.21.15.42.17v.19h-2.44v-.19c.18-.02.31-.1.39-.23.05-.09.08-.3.08-.64v-2.15c0-.4-.02-.64-.05-.75-.03-.1-.08-.18-.16-.24-.07-.06-.16-.08-.25-.08-.3,0-.57.21-.83.63v2.58c0,.36.03.59.1.69s.19.16.37.18v.19h-2.44v-.19c.2-.02.35-.09.43-.2.06-.08.09-.3.09-.67v-2.72c0-.36-.03-.59-.1-.68-.07-.09-.21-.15-.42-.18v-.19h1.97Z"/>
    <path class="st0" d="M228.22,31.51v5.55c0,.38.01.6.03.67.03.11.08.2.16.25.08.05.21.09.4.1v.17l-2.04.4v-.76c-.24.3-.46.5-.65.6-.19.11-.41.16-.65.16-.62,0-1.1-.28-1.46-.83-.29-.45-.43-1-.43-1.65,0-.52.09-.98.27-1.4.18-.41.42-.72.73-.93.31-.21.65-.31,1-.31.23,0,.44.04.61.13s.37.25.57.47v-1.45c0-.37-.02-.59-.05-.67-.04-.1-.1-.17-.19-.22-.08-.05-.24-.07-.46-.07v-.22h2.14ZM226.77,34.78c-.25-.49-.57-.73-.93-.73-.13,0-.23.03-.31.1-.13.11-.23.29-.31.56-.08.27-.12.68-.12,1.23,0,.61.04,1.06.13,1.35.09.29.21.5.37.63.08.06.19.1.32.1.3,0,.59-.24.86-.71v-2.54Z"/>
    <path class="st0" d="M235.98,36.51h-2.47l-.29.68c-.1.23-.14.41-.14.56,0,.2.08.34.24.43.09.05.32.1.69.12v.19h-2.33v-.19c.25-.04.46-.14.62-.31.16-.17.36-.52.6-1.05l2.5-5.58h.1l2.52,5.74c.24.54.44.89.59,1.03.12.11.28.17.5.19v.19h-3.38v-.19h.14c.27,0,.46-.04.57-.11.08-.06.11-.13.11-.24,0-.06-.01-.13-.03-.19,0-.03-.06-.16-.15-.39l-.37-.87ZM235.8,36.13l-1.04-2.41-1.07,2.41h2.11Z"/>
    <path class="st0" d="M242.71,33.74h1.62v.57h-.92c.17.17.29.32.35.46.08.19.12.38.12.58,0,.34-.1.64-.29.89-.19.25-.45.45-.78.59-.33.14-.62.21-.87.21-.02,0-.23,0-.62-.03-.15,0-.28.05-.39.15s-.16.22-.16.36c0,.12.05.23.14.3.09.08.25.12.46.12h.89c.72-.01,1.22.07,1.49.23.39.22.58.56.58,1.02,0,.29-.09.56-.27.8-.18.24-.41.42-.71.53-.44.17-.95.25-1.53.25-.43,0-.83-.04-1.19-.13-.36-.08-.61-.2-.77-.35-.15-.15-.23-.31-.23-.47s.06-.3.18-.43.34-.23.66-.32c-.45-.22-.67-.53-.67-.92,0-.24.09-.47.27-.69.18-.22.47-.42.87-.58-.46-.17-.79-.39-1-.67-.21-.27-.31-.59-.31-.95,0-.47.19-.88.58-1.23.39-.35.88-.52,1.49-.52.32,0,.65.07.99.2ZM241.51,39.21c-.35,0-.58.03-.7.09-.2.11-.29.25-.29.43s.1.33.3.48c.2.14.58.21,1.15.21.48,0,.85-.06,1.13-.19.27-.13.41-.31.41-.54,0-.09-.03-.16-.08-.22-.09-.1-.23-.17-.42-.21-.19-.04-.69-.06-1.5-.06ZM241.82,33.85c-.2,0-.37.1-.51.3s-.21.62-.21,1.25c0,.51.07.86.2,1.05.14.19.3.29.48.29.21,0,.38-.09.52-.28.14-.19.21-.56.21-1.1,0-.62-.08-1.03-.23-1.26-.11-.17-.26-.25-.46-.25Z"/>
    <path class="st0" d="M248.83,35.92h-2.65c.03.64.2,1.15.51,1.52.24.29.52.43.86.43.21,0,.39-.06.56-.17s.35-.32.54-.62l.18.11c-.26.53-.55.91-.87,1.13-.32.22-.68.33-1.1.33-.72,0-1.26-.28-1.62-.83-.3-.44-.44-.99-.44-1.65,0-.8.22-1.45.65-1.92.43-.48.94-.71,1.53-.71.49,0,.91.2,1.27.6.36.4.55.99.58,1.78ZM247.56,35.57c0-.55-.03-.93-.09-1.14-.06-.21-.15-.36-.28-.47-.07-.06-.17-.09-.29-.09-.18,0-.32.09-.44.26-.2.31-.3.73-.3,1.26v.18h1.4Z"/>
    <path class="st0" d="M251.32,33.68v3.82c0,.34.04.56.12.65s.23.15.46.16v.19h-2.6v-.19c.21,0,.37-.07.47-.19.07-.08.1-.29.1-.63v-2.82c0-.34-.04-.56-.12-.65-.08-.09-.23-.15-.46-.16v-.19h2.02ZM250.6,31.34c.22,0,.41.08.57.23.15.16.23.34.23.56s-.08.41-.23.56-.34.23-.56.23-.41-.08-.56-.23-.23-.34-.23-.56.08-.41.23-.56c.15-.16.34-.23.56-.23Z"/>
    <path class="st0" d="M254.49,33.68v.62c.25-.27.48-.46.71-.59.23-.12.47-.18.73-.18.31,0,.57.09.78.26.21.17.34.39.41.65.05.2.08.57.08,1.13v1.88c0,.37.03.6.1.69.07.09.21.15.42.17v.19h-2.44v-.19c.18-.02.31-.1.39-.23.05-.09.08-.3.08-.64v-2.15c0-.4-.02-.64-.05-.75-.03-.1-.08-.18-.16-.24-.07-.06-.16-.08-.25-.08-.3,0-.57.21-.83.63v2.58c0,.36.03.59.1.69s.19.16.37.18v.19h-2.44v-.19c.2-.02.35-.09.43-.2.06-.08.09-.3.09-.67v-2.72c0-.36-.03-.59-.1-.68-.07-.09-.21-.15-.42-.18v-.19h1.97Z"/>
    <path class="st0" d="M261.43,33.74h1.62v.57h-.92c.17.17.29.32.35.46.08.19.12.38.12.58,0,.34-.1.64-.29.89-.19.25-.45.45-.78.59-.33.14-.62.21-.87.21-.02,0-.23,0-.62-.03-.15,0-.28.05-.39.15s-.16.22-.16.36c0,.12.05.23.14.3.09.08.25.12.46.12h.89c.72-.01,1.22.07,1.49.23.39.22.58.56.58,1.02,0,.29-.09.56-.27.8-.18.24-.41.42-.71.53-.44.17-.95.25-1.53.25-.43,0-.83-.04-1.19-.13-.36-.08-.61-.2-.77-.35-.15-.15-.23-.31-.23-.47s.06-.3.18-.43.34-.23.66-.32c-.45-.22-.67-.53-.67-.92,0-.24.09-.47.27-.69.18-.22.47-.42.87-.58-.46-.17-.79-.39-1-.67-.21-.27-.31-.59-.31-.95,0-.47.19-.88.58-1.23.39-.35.88-.52,1.49-.52.32,0,.65.07.99.2ZM260.23,39.21c-.35,0-.58.03-.7.09-.2.11-.29.25-.29.43s.1.33.3.48c.2.14.58.21,1.15.21.48,0,.85-.06,1.13-.19.27-.13.41-.31.41-.54,0-.09-.03-.16-.08-.22-.09-.1-.23-.17-.42-.21-.19-.04-.69-.06-1.5-.06ZM260.54,33.85c-.2,0-.37.1-.51.3s-.21.62-.21,1.25c0,.51.07.86.2,1.05.14.19.3.29.48.29.21,0,.38-.09.52-.28.14-.19.21-.56.21-1.1,0-.62-.08-1.03-.23-1.26-.11-.17-.26-.25-.46-.25Z"/>
  </g>
</svg>